<svg xmlns="http://www.w3.org/2000/svg" version="1.1" xmlns:xlink="http://www.w3.org/1999/xlink" width="512" height="512" x="0" y="0" viewBox="0 0 388.491 388.491" style="enable-background:new 0 0 512 512" xml:space="preserve" class=""><g><path fill-rule="evenodd" d="M194.246 0c107.279 0 194.246 86.967 194.246 194.246s-86.967 194.246-194.246 194.246S0 301.525 0 194.246 86.967 0 194.246 0zm-24.368 116.617a7.197 7.197 0 0 0-9.497.598l-.598.678a7.197 7.197 0 0 0 .598 9.497l66.85 66.856-66.85 66.856-.598.678a7.193 7.193 0 0 0 10.772 9.496l71.943-71.943.598-.678a7.197 7.197 0 0 0-.598-9.497l-71.943-71.943z" clip-rule="evenodd" fill="currentColor" opacity="1" data-original="#000000" class=""></path></g></svg>