<svg width="88" height="88" viewBox="0 0 88 88" fill="none" xmlns="http://www.w3.org/2000/svg">
<path d="M0 44C0 19.6995 19.6995 0 44 0V0C68.3005 0 88 19.6995 88 44V44C88 68.3005 68.3005 88 44 88V88C19.6995 88 0 68.3005 0 44V44Z" fill="#C27AFF"/>
<path d="M31.9917 37.9225C31.9691 37.9225 31.9465 37.9225 31.9296 37.9168C31.4156 37.8773 26.8518 37.4028 25.5358 35.0136C25.0726 34.1777 24.9992 33.2909 25.3268 32.5171C25.4906 32.1386 25.7335 31.811 26.0498 31.5399C26.3661 31.2688 26.7219 31.0881 27.1229 30.9864C27.2133 30.9638 27.3093 30.9582 27.4053 30.9694C27.5014 30.9807 27.5917 31.0146 27.6708 31.0598C27.7555 31.1107 27.8233 31.1728 27.8854 31.2462C27.9419 31.3253 27.9871 31.41 28.0097 31.5004C28.0323 31.5964 28.0379 31.6868 28.0267 31.7828C28.0154 31.8788 27.9815 31.9692 27.9363 32.0539C27.8854 32.1386 27.8233 32.2064 27.7499 32.2685C27.6708 32.325 27.5861 32.3702 27.4957 32.3928C27.106 32.4888 26.8292 32.7204 26.6598 33.0875C26.5073 33.4434 26.5581 33.867 26.801 34.3132C27.507 35.5954 30.1335 36.211 31.5625 36.4144C32.1442 35.0927 33.0141 32.534 32.3024 31.2519C31.9578 30.6306 31.4439 30.3594 30.8847 30.5063C30.7265 30.5515 30.5797 30.6249 30.4498 30.7209C30.3142 30.8169 30.2012 30.9299 30.1052 31.0655C30.0092 31.201 29.9414 31.3479 29.8962 31.506C29.851 31.6642 29.8341 31.828 29.8397 31.9918C29.8397 32.0878 29.8228 32.1838 29.7833 32.2685C29.7494 32.3589 29.6929 32.438 29.6251 32.5058C29.5573 32.5736 29.4783 32.6244 29.3879 32.6639C29.2975 32.7035 29.2071 32.7204 29.1111 32.7204C29.0151 32.7204 28.9247 32.7035 28.8344 32.6639C28.744 32.6244 28.6649 32.5736 28.5971 32.5058C28.5293 32.438 28.4785 32.3589 28.439 32.2685C28.3994 32.1782 28.3825 32.0878 28.3825 31.9918C28.3768 31.6642 28.4164 31.3479 28.5181 31.0372C28.6141 30.7266 28.7609 30.4385 28.953 30.1787C29.145 29.9189 29.3766 29.6929 29.6421 29.5065C29.9075 29.3202 30.2012 29.1846 30.5119 29.0942C31.7263 28.7779 32.8955 29.3315 33.562 30.5402C34.878 32.9237 32.8672 37.0583 32.63 37.5271C32.5679 37.6513 32.4775 37.7474 32.3645 37.8208C32.2572 37.8886 32.1329 37.9225 31.9917 37.9225Z" fill="white"/>
<path d="M41.4413 33.1779C41.2605 33.1779 41.1024 33.1158 40.9668 32.9972C40.4867 32.5736 36.2844 28.7892 36.6798 25.5019C36.8775 23.8696 37.9168 22.7399 39.3853 22.5479C40.916 22.3502 42.4071 23.2709 43.0172 24.7959C43.051 24.8863 43.068 24.9766 43.068 25.0727C43.068 25.1687 43.0454 25.259 43.0115 25.3494C42.972 25.4398 42.9211 25.5189 42.8534 25.581C42.7856 25.6431 42.7065 25.6996 42.6161 25.7335C42.5258 25.7674 42.4354 25.7843 42.3394 25.7843C42.2433 25.7843 42.153 25.7617 42.0626 25.7279C41.9722 25.6883 41.8988 25.6375 41.831 25.5697C41.7519 25.5019 41.7011 25.4228 41.6672 25.3325C41.2436 24.2706 40.3116 23.8922 39.5717 23.9882C38.764 24.0955 38.2387 24.7112 38.1201 25.677C37.8829 27.62 40.2495 30.3255 41.5486 31.5625C43.1075 30.6701 46.0559 28.6198 46.2875 26.6768C46.3666 26.0159 46.2254 25.468 45.8695 25.0839C45.508 24.7055 45.0618 24.5304 44.5422 24.5643C44.4462 24.57 44.3501 24.553 44.2598 24.5248C44.1694 24.4909 44.0847 24.4457 44.0169 24.3779C43.9435 24.3101 43.887 24.2367 43.8474 24.1463C43.8079 24.056 43.7853 23.9656 43.7797 23.8696C43.774 23.7736 43.791 23.6775 43.8249 23.5872C43.8587 23.4968 43.9096 23.4121 43.9717 23.3443C44.0395 23.2709 44.1129 23.2144 44.2033 23.1748C44.2937 23.1353 44.384 23.1127 44.4801 23.1071C44.9432 23.0845 45.3894 23.1579 45.8187 23.3273C46.248 23.4968 46.6207 23.7566 46.9371 24.0899C47.581 24.7846 47.8634 25.7674 47.7278 26.8462C47.3268 30.1391 42.3394 32.7995 41.7689 33.0875C41.6672 33.1497 41.5543 33.1779 41.4413 33.1779Z" fill="white"/>
<path d="M43.9943 39.1933C31.506 39.1933 23.8356 42.1756 23.8356 44.3106C23.8356 46.4457 31.506 49.428 43.9943 49.428C56.4826 49.428 64.153 46.4457 64.153 44.3106C64.1473 42.1756 56.4826 39.1933 43.9943 39.1933ZM43.9943 50.8796C33.5168 50.8796 22.384 48.5751 22.384 44.305C22.384 40.0349 33.5168 37.7304 43.9943 37.7304C54.4718 37.7304 65.6046 40.0349 65.6046 44.305C65.5989 48.5807 54.4662 50.8796 43.9943 50.8796Z" fill="white"/>
<path d="M41.2154 48.7897C41.1532 48.7897 41.0911 48.7841 41.0346 48.7671C40.9781 48.7502 40.916 48.7276 40.8652 48.6994C40.8087 48.6711 40.7635 48.6316 40.7183 48.592C40.6731 48.5525 40.6336 48.5017 40.6053 48.4508C40.5715 48.4 40.5489 48.3435 40.5319 48.2814C40.515 48.2249 40.5037 48.1628 40.498 48.1006C40.4924 48.0385 40.498 47.9764 40.515 47.9142C40.5263 47.8521 40.5489 47.7956 40.5771 47.7391C42.0061 44.9207 43.9322 42.5032 46.3553 40.4868C47.2025 39.7864 50.1057 37.561 51.755 38.2614C53.6359 39.0691 54.2798 43.8362 53.811 47.982C53.7997 48.078 53.7715 48.1684 53.7263 48.2531C53.6811 48.3379 53.619 48.4113 53.5455 48.4734C53.4721 48.5356 53.3874 48.5807 53.2914 48.6033C53.201 48.6316 53.105 48.6372 53.0089 48.6259C52.9129 48.6146 52.8225 48.5864 52.7378 48.5412C52.6531 48.496 52.5797 48.4339 52.5232 48.3548C52.4611 48.2814 52.4215 48.1967 52.3933 48.1006C52.365 48.0046 52.3594 47.9142 52.3707 47.8182C52.879 43.3279 51.8793 39.8994 51.1902 39.6056C50.8852 39.4757 49.4844 39.8033 47.2816 41.6164C45.0166 43.5029 43.2205 45.7623 41.8819 48.3943C41.8197 48.5186 41.7294 48.6146 41.6164 48.6881C41.4808 48.7558 41.3566 48.7897 41.2154 48.7897Z" fill="white"/>
<path d="M45.1296 48.897C45.0675 48.897 45.0053 48.8914 44.9489 48.8744C44.8867 48.8575 44.8303 48.8349 44.7794 48.8067C44.7229 48.7784 44.6777 48.7389 44.6326 48.6993C44.5874 48.6542 44.5478 48.609 44.5196 48.5581C44.4857 48.5073 44.4631 48.4508 44.4405 48.3887C44.4179 48.3266 44.4123 48.2644 44.4066 48.2023C44.401 48.1402 44.4066 48.078 44.4179 48.0216C44.4292 47.9594 44.4518 47.9029 44.4744 47.8465C45.621 45.4685 46.9427 43.2036 48.4451 41.0403C50.5406 38.075 51.2184 38.0411 51.7381 38.2613C52.3312 38.5155 52.591 39.1933 52.1391 41.8988C51.755 44.0678 51.2128 46.1972 50.5237 48.287C50.4955 48.3774 50.4503 48.4621 50.3881 48.5355C50.326 48.609 50.2526 48.6655 50.1679 48.7106C50.0831 48.7558 49.9928 48.7784 49.8967 48.7897C49.8007 48.7954 49.7047 48.7841 49.6143 48.7558C49.524 48.7276 49.4392 48.6824 49.3658 48.6146C49.2924 48.5525 49.2359 48.4791 49.1907 48.3887C49.1455 48.304 49.1229 48.2136 49.1116 48.1176C49.106 48.0216 49.1173 47.9255 49.1455 47.8352C50.2526 44.4236 50.7779 41.6447 50.8965 40.2439C49.812 41.4809 47.7561 44.418 45.7792 48.4847C45.717 48.609 45.6267 48.7106 45.5137 48.7841C45.3951 48.8575 45.2708 48.897 45.1296 48.897Z" fill="white"/>
<path d="M52.3198 40.6336C52.2577 40.6336 52.2012 40.628 52.1391 40.611C52.0826 40.5941 52.0261 40.5715 51.9696 40.5433C51.9188 40.515 51.868 40.4811 51.8228 40.4359C51.7776 40.3964 51.7381 40.3456 51.7042 40.2947C51.6703 40.2439 51.6477 40.1874 51.6251 40.1309C51.6082 40.0745 51.5969 40.0123 51.5912 39.9502C51.5856 39.8881 51.5912 39.8316 51.6025 39.7694C51.6138 39.7073 51.6308 39.6508 51.659 39.5944L58.4708 24.7055C58.516 24.5982 58.5386 24.4796 58.5442 24.361C58.5442 24.2424 58.5216 24.1237 58.4765 24.0164C58.4313 23.9091 58.3691 23.8074 58.2844 23.7227C58.1997 23.638 58.1037 23.5702 57.9963 23.525C57.889 23.4798 57.7704 23.4516 57.6518 23.4516C57.5332 23.4516 57.4202 23.4742 57.3073 23.5194C57.1943 23.5646 57.0983 23.6267 57.0135 23.7114C56.9288 23.7961 56.861 23.8922 56.8159 23.9995L50.8343 39.2498C50.8005 39.3402 50.7496 39.4193 50.6818 39.487C50.6141 39.5548 50.535 39.6113 50.4503 39.6452C50.3599 39.6847 50.2695 39.7017 50.1735 39.7017C50.0775 39.7017 49.9871 39.6847 49.8967 39.6508C49.8064 39.6169 49.7273 39.5661 49.6595 39.4983C49.5917 39.4306 49.5352 39.3571 49.4957 39.2668C49.4562 39.1764 49.4392 39.086 49.4336 38.99C49.4336 38.894 49.4449 38.8036 49.4788 38.7132L55.4772 23.4516C55.4772 23.446 55.4829 23.4403 55.4829 23.4347C55.545 23.2935 55.6184 23.1579 55.7032 23.028C55.7879 22.8981 55.8895 22.7795 55.9969 22.6721C56.1042 22.5648 56.2284 22.4688 56.3584 22.3841C56.4883 22.2994 56.6238 22.2259 56.765 22.1694C56.9062 22.113 57.0531 22.0678 57.2056 22.0395C57.3581 22.0113 57.5106 22 57.6631 22C57.8156 22 57.9681 22.0169 58.1206 22.0508C58.2731 22.0847 58.42 22.1299 58.5612 22.192C58.7024 22.2542 58.8379 22.3276 58.9622 22.4123C59.0921 22.5027 59.2107 22.5987 59.318 22.7117C59.4254 22.8246 59.5214 22.9433 59.6061 23.0732C59.6908 23.2031 59.7643 23.3386 59.8207 23.4798C59.8772 23.6211 59.9224 23.7736 59.9506 23.9204C59.9789 24.0673 59.9902 24.2254 59.9902 24.3779C59.9902 24.5304 59.9732 24.6829 59.9394 24.8354C59.9111 24.9936 59.8659 25.1404 59.8038 25.2816C59.8038 25.2873 59.7981 25.2929 59.7981 25.2986L52.9807 40.21C52.9242 40.3399 52.8338 40.4416 52.7152 40.5207C52.591 40.5941 52.461 40.6336 52.3198 40.6336Z" fill="white"/>
<path d="M24.0051 46.9371C24.0842 47.5415 24.1915 48.1345 24.3214 48.7276C24.4513 49.3207 24.6095 49.9081 24.7958 50.4842C24.9822 51.0603 25.1912 51.6308 25.4284 52.19C25.6657 52.7492 25.9255 53.297 26.2079 53.8336C26.4903 54.3702 26.801 54.8899 27.1342 55.3982C27.4675 55.9065 27.8177 56.3979 28.1961 56.8724C28.5745 57.3469 28.9699 57.8044 29.3879 58.2449C29.8059 58.6855 30.2408 59.1035 30.6983 59.5045C31.1558 59.9055 31.6246 60.284 32.116 60.6454C32.6074 61.0013 33.1101 61.3402 33.6297 61.6508C34.1494 61.9615 34.6803 62.2496 35.2282 62.515C35.7761 62.7805 36.3296 63.0177 36.8944 63.2323C37.4593 63.447 38.0354 63.6334 38.6172 63.7972C39.1989 63.961 39.792 64.0965 40.3851 64.2038C40.9781 64.3112 41.5825 64.3959 42.1812 64.4467C42.7856 64.5032 43.3899 64.5314 43.9943 64.5314C44.5987 64.5314 45.203 64.5032 45.8074 64.4467C46.4118 64.3902 47.0105 64.3112 47.6035 64.2038C48.1966 64.0965 48.7897 63.961 49.3715 63.7972C49.9532 63.6334 50.5294 63.447 51.0942 63.2323C51.659 63.0177 52.2182 62.7805 52.7604 62.515C53.3083 62.2496 53.8392 61.9615 54.3589 61.6508C54.8785 61.3402 55.3812 61.0013 55.8726 60.6454C56.364 60.2896 56.8328 59.9055 57.2903 59.5045C57.7478 59.1035 58.1827 58.6855 58.6007 58.2449C59.0187 57.8044 59.4141 57.3469 59.7925 56.8724C60.1709 56.3979 60.5211 55.9065 60.8544 55.3982C61.1876 54.8899 61.4926 54.3702 61.7807 53.8336C62.0631 53.297 62.3286 52.7492 62.5602 52.19C62.7974 51.6308 63.0064 51.0603 63.1928 50.4842C63.3792 49.9081 63.5373 49.3207 63.6672 48.7276C63.7971 48.1345 63.9044 47.5358 63.9835 46.9371C60.5211 49.5184 52.0657 50.8796 43.9943 50.8796C35.9229 50.8796 27.4618 49.5127 24.0051 46.9371ZM43.9943 66C43.2883 66 42.5822 65.9661 41.8762 65.8927C41.1702 65.8249 40.4754 65.7176 39.7807 65.5764C39.086 65.4352 38.4025 65.2657 37.7247 65.0567C37.0469 64.8478 36.3804 64.6105 35.7309 64.3394C35.0813 64.0683 34.4374 63.7633 33.8161 63.43C33.1948 63.0968 32.5848 62.7296 31.9974 62.3343C31.41 61.9389 30.8395 61.5153 30.2973 61.0691C29.7494 60.6172 29.2241 60.1427 28.727 59.64C28.2243 59.1373 27.7499 58.6121 27.3037 58.0642C26.8575 57.5163 26.4338 56.9458 26.0385 56.3528C25.6431 55.7597 25.2816 55.1553 24.9483 54.5284C24.6151 53.9014 24.3101 53.2632 24.039 52.608C23.7679 51.9528 23.5306 51.2863 23.3216 50.6028C23.1127 49.925 22.9432 49.2359 22.802 48.5412C22.6608 47.8465 22.5591 47.1461 22.4914 46.4344C22.4236 45.7284 22.384 45.0167 22.384 44.3107C22.384 44.2146 22.401 44.1186 22.4405 44.0339C22.4801 43.9435 22.5309 43.8644 22.5987 43.7967C22.6664 43.7289 22.7455 43.678 22.8359 43.6385C22.9263 43.599 23.0166 43.582 23.1127 43.582C23.2087 43.582 23.2991 43.599 23.3894 43.6385C23.4798 43.678 23.5589 43.7289 23.6267 43.7967C23.6944 43.8644 23.7453 43.9435 23.7848 44.0339C23.8243 44.1243 23.8413 44.2146 23.8413 44.3107C23.8413 46.4457 31.5116 49.428 44 49.428C56.4883 49.428 64.1586 46.4457 64.1586 44.3107C64.1586 44.2146 64.1756 44.1186 64.2151 44.0339C64.2546 43.9435 64.3055 43.8644 64.3733 43.7967C64.441 43.7289 64.5201 43.678 64.6105 43.6385C64.7008 43.599 64.7912 43.582 64.8872 43.582C64.9833 43.582 65.0736 43.599 65.164 43.6385C65.2544 43.678 65.3335 43.7289 65.4012 43.7967C65.469 43.8644 65.5198 43.9435 65.5594 44.0339C65.5989 44.1243 65.6159 44.2146 65.6159 44.3107C65.6159 45.0223 65.582 45.7284 65.5086 46.4344C65.4408 47.1404 65.3335 47.8408 65.1979 48.5412C65.0567 49.2359 64.8872 49.925 64.6839 50.6028C64.4806 51.2806 64.2377 51.9471 63.9666 52.608C63.6955 53.2632 63.3905 53.9071 63.0572 54.5284C62.724 55.1553 62.3625 55.7653 61.9671 56.3528C61.5717 56.9458 61.1537 57.5107 60.7019 58.0642C60.2557 58.6121 59.7812 59.1373 59.2785 59.64C58.7758 60.1427 58.2562 60.6172 57.7083 61.0691C57.1604 61.5209 56.5956 61.9445 56.0082 62.3343C55.4207 62.7296 54.8164 63.0911 54.1894 63.43C53.5681 63.7633 52.9242 64.0683 52.2747 64.3394C51.6195 64.6105 50.9586 64.8534 50.2808 65.0567C49.603 65.2657 48.9196 65.4352 48.2249 65.5764C47.5301 65.7176 46.8297 65.8193 46.1293 65.8927C45.4064 65.9605 44.7003 65.9944 43.9943 66Z" fill="white"/>
</svg>
