<svg width="88" height="88" viewBox="0 0 88 88" fill="none" xmlns="http://www.w3.org/2000/svg">
<path d="M0 44C0 19.6995 19.6995 0 44 0V0C68.3005 0 88 19.6995 88 44V44C88 68.3005 68.3005 88 44 88V88C19.6995 88 0 68.3005 0 44V44Z" fill="#FF8364"/>
<path d="M33.0074 54.0018H29.0124C28.4615 54.0018 28.012 53.5523 28.012 53.0015C28.012 52.4506 28.4584 52.0011 29.0124 52.0011H33.0074C33.5582 52.0011 34.0077 52.4506 34.0077 53.0015C34.0077 53.5523 33.5582 54.0018 33.0074 54.0018Z" fill="white"/>
<path d="M65.4804 54.0018H62.9828C62.4319 54.0018 61.9824 53.5523 61.9824 53.0015C61.9824 52.4507 62.4288 52.0011 62.9828 52.0011H64.651L65.9964 44.8152C65.9774 41.1399 62.8403 37.9996 58.9846 37.9996H52.4254L49.2471 52.0011H54.9895C55.5404 52.0011 55.9899 52.4507 55.9899 53.0015C55.9899 53.5523 55.5435 54.0018 54.9895 54.0018H47.9966C47.6927 54.0018 47.4047 53.8625 47.2147 53.6251C47.0248 53.3877 46.952 53.0774 47.0216 52.7799L50.6558 36.7776C50.7603 36.3186 51.1623 35.9989 51.6308 35.9989H58.9877C63.9451 35.9989 67.9813 40.0382 67.9813 44.9988L66.4649 53.1819C66.3731 53.6599 65.9616 54.0018 65.4804 54.0018Z" fill="white"/>
<path d="M58.9877 50.0005C57.3353 50.0005 55.9899 51.3458 55.9899 53.0015C55.9899 54.6571 57.3353 56.0025 58.9877 56.0025C60.6402 56.0025 61.9856 54.6571 61.9856 53.0015C61.9824 51.3458 60.6402 50.0005 58.9877 50.0005ZM58.9877 58C56.2336 58 53.9923 55.7587 53.9923 52.9983C53.9923 50.2379 56.2336 47.9966 58.9877 47.9966C61.7418 47.9966 63.9831 50.2379 63.9831 52.9983C63.9831 55.7587 61.7386 58 58.9877 58Z" fill="white"/>
<path d="M37.0056 50.0005C35.3531 50.0005 34.0077 51.3458 34.0077 53.0015C34.0077 54.6571 35.3531 56.0025 37.0056 56.0025C38.658 56.0025 40.0034 54.6571 40.0034 53.0015C40.0034 51.3458 38.658 50.0005 37.0056 50.0005ZM37.0056 58C34.2515 58 32.0102 55.7587 32.0102 52.9983C32.0102 50.2379 34.2515 47.9966 37.0056 47.9966C39.7597 47.9966 42.0009 50.2379 42.0009 52.9983C42.0009 55.7587 39.7597 58 37.0056 58Z" fill="white"/>
<path d="M33.0074 35.9989H25.0142C24.4634 35.9989 24.0138 35.5494 24.0138 34.9985C24.0138 34.4477 24.4602 33.9982 25.0142 33.9982H33.0074C33.5582 33.9982 34.0077 34.4477 34.0077 34.9985C34.0077 35.5494 33.5582 35.9989 33.0074 35.9989Z" fill="white"/>
<path d="M33.0074 42.0009H23.0167C22.4658 42.0009 22.0163 41.5514 22.0163 41.0006C22.0163 40.4497 22.4627 40.0002 23.0167 40.0002H33.0074C33.5582 40.0002 34.0077 40.4497 34.0077 41.0006C34.0077 41.5514 33.5582 42.0009 33.0074 42.0009Z" fill="white"/>
<path d="M33.0074 47.9998H21.0191C20.4683 47.9998 20.0188 47.5503 20.0188 46.9994C20.0188 46.4486 20.4652 45.9991 21.0191 45.9991H33.0106C33.5614 45.9991 34.0109 46.4486 34.0109 46.9994C34.0077 47.5534 33.5582 47.9998 33.0074 47.9998Z" fill="white"/>
<path d="M47.9966 54.0018L41.0038 54.0018C40.453 54.0018 40.0034 53.5523 40.0034 53.0015C40.0034 52.4506 40.4498 52.0011 41.0038 52.0011H47.2021L51.7416 32.0007H29.0155C28.4647 32.0007 28.0152 31.5512 28.0152 31.0003C28.0152 30.4495 28.4615 30 29.0155 30H52.9952C53.2991 30 53.5871 30.1393 53.7771 30.3767C53.967 30.6141 54.0398 30.9244 53.9702 31.2219L48.9717 53.2199C48.8672 53.6789 48.462 54.0018 47.9966 54.0018Z" fill="white"/>
</svg>
