<svg width="88" height="88" viewBox="0 0 88 88" fill="none" xmlns="http://www.w3.org/2000/svg">
<path d="M0 44C0 19.6995 19.6995 0 44 0V0C68.3005 0 88 19.6995 88 44V44C88 68.3005 68.3005 88 44 88V88C19.6995 88 0 68.3005 0 44V44Z" fill="#00D492"/>
<path d="M51.8684 56.0846C51.4798 56.0846 51.2192 56.3452 51.2192 56.7338C51.2192 58.4254 49.8521 59.8611 48.0965 59.8611C47.7079 59.8611 47.4473 60.1217 47.4473 60.5103C47.4473 60.8989 47.7079 61.1595 48.0965 61.1595C50.5014 61.1595 52.5222 59.2073 52.5222 56.7338C52.5176 56.4092 52.257 56.0846 51.8684 56.0846Z" fill="white"/>
<path d="M59.4762 59.8565H55.8323V56.4686H63.5087C63.1201 58.4254 61.4925 59.8565 59.4762 59.8565ZM54.4698 60.6383C54.4698 62.3299 53.1028 63.7656 51.3472 63.7656H42.8889C41.9151 63.7656 41.0007 63.3084 40.4155 62.5951L33.6489 53.8717C33.3883 53.4831 33.4523 52.9619 33.7769 52.7013C36.511 50.5524 38.3307 54.6535 38.9799 55.1747C39.3685 55.696 40.1503 55.3713 40.1503 54.7861V41.0427C40.1503 40.3249 40.7355 39.7396 41.4533 39.7396C42.1712 39.7396 42.7564 40.3249 42.7564 41.0427V50.8725C42.7564 51.2611 43.017 51.5217 43.4056 51.5217C43.7942 51.5217 44.0548 51.2611 44.0548 50.8725V47.6812C44.0548 45.9256 46.6563 45.9256 46.6563 47.6812V50.8725C46.6563 51.2611 46.9169 51.5217 47.3055 51.5217C47.6941 51.5217 47.9547 51.2611 47.9547 50.8725V48.399C47.9547 46.6434 50.5562 46.6434 50.5562 48.399V50.8725C50.5562 51.2611 50.8168 51.5217 51.2054 51.5217C51.594 51.5217 51.8547 51.2611 51.8547 50.8725V50.1547C51.8547 48.399 54.4561 48.5271 54.4561 50.1547V60.6383H54.4698ZM28.51 59.8565C26.4937 59.8565 24.8021 58.3569 24.4775 56.4686C28.1854 56.4686 30.7228 56.4686 33.9735 56.4686L36.639 59.8565H28.51ZM27.143 30.2985H60.8432V55.1702H55.7683V50.1593C55.7683 48.271 53.688 46.84 51.7998 47.9464C51.4752 45.8616 49.0017 45.2764 47.5707 46.3828C46.9214 45.2764 45.4904 44.6271 43.9908 45.4729V41.0472C43.9908 39.6162 42.8204 38.4412 41.3893 38.4412C39.9583 38.4412 38.7879 39.6116 38.7879 41.0472V52.8979C38.7239 52.8339 36.3144 49.1214 32.9311 51.7275C32.0213 52.4453 31.8247 53.8123 32.5425 54.7221L32.9311 55.1793H27.143V30.2985ZM64.1625 55.1702H62.1462V29.6492C62.1462 29.2606 61.8856 29 61.497 29H26.4983C26.1097 29 25.8491 29.2606 25.8491 29.6492V55.1702H23.8328C23.4442 55.1702 23.1836 55.4308 23.1836 55.8194C23.1836 58.8141 25.5885 61.1595 28.5191 61.1595H37.6906L39.3822 63.3084C40.228 64.4148 41.4625 65 42.8935 65H51.4157C53.6926 65 55.5122 63.3084 55.7729 61.0955H59.4808C62.4069 61.0955 64.8163 58.6861 64.8163 55.7554C64.8117 55.4308 64.5511 55.1702 64.1625 55.1702Z" fill="white"/>
<path d="M41.2613 36.0958C41.6499 36.0958 41.9105 35.8352 41.9105 35.4465V33.3617C41.9105 32.9731 41.6499 32.7125 41.2613 32.7125C40.8727 32.7125 40.6121 32.9731 40.6121 33.3617V35.4465C40.6121 35.8352 40.8727 36.0958 41.2613 36.0958Z" fill="white"/>
<path d="M38.0746 36.1598C38.2712 36.4844 38.6598 36.617 38.9845 36.4204C39.3091 36.2238 39.4417 35.8351 39.2451 35.5105L38.1386 33.6223C37.9421 33.2977 37.5534 33.1651 37.2288 33.3617C36.9042 33.5583 36.7716 33.9469 36.9682 34.2715L38.0746 36.1598Z" fill="white"/>
<path d="M43.5382 36.4204C43.8628 36.617 44.256 36.4844 44.448 36.1598L45.4904 34.2715C45.687 33.9469 45.5544 33.5537 45.2298 33.3617C44.9052 33.1651 44.512 33.2977 44.32 33.6223L43.2776 35.5105C43.0856 35.8351 43.2136 36.2238 43.5382 36.4204Z" fill="white"/>
<path d="M58.3058 38.9578H50.3047C49.9161 38.9578 49.6555 39.2184 49.6555 39.6071C49.6555 39.9957 49.9161 40.2563 50.3047 40.2563H58.3058C58.6944 40.2563 58.955 39.9957 58.955 39.6071C58.9595 39.2824 58.6989 38.9578 58.3058 38.9578Z" fill="white"/>
<path d="M49.0017 35.7026H58.3058C58.6944 35.7026 58.955 35.4419 58.955 35.0533C58.955 34.6647 58.6944 34.4041 58.3058 34.4041H49.0017C48.6131 34.4041 48.3525 34.6647 48.3525 35.0533C48.3525 35.4419 48.6771 35.7026 49.0017 35.7026Z" fill="white"/>
<path d="M58.3058 43.5161H52.9062C52.5176 43.5161 52.257 43.7767 52.257 44.1654C52.257 44.554 52.5176 44.8146 52.9062 44.8146H58.3058C58.6944 44.8146 58.955 44.554 58.955 44.1654C58.9595 43.8407 58.6989 43.5161 58.3058 43.5161Z" fill="white"/>
<path d="M30.7228 40.2608H35.2766C35.6652 40.2608 35.9258 40.0002 35.9258 39.6116C35.9258 39.223 35.6652 38.9624 35.2766 38.9624H30.7228C30.3342 38.9624 30.0736 39.223 30.0736 39.6116C30.0736 40.0002 30.3342 40.2608 30.7228 40.2608Z" fill="white"/>
<path d="M35.9258 44.1699C35.9258 43.7813 35.6652 43.5207 35.2766 43.5207H30.7228C30.3342 43.5207 30.0736 43.7813 30.0736 44.1699C30.0736 44.5585 30.3342 44.8191 30.7228 44.8191H35.2766C35.6652 44.8191 35.9258 44.5585 35.9258 44.1699Z" fill="white"/>
</svg>
