
        <svg xmlns="http://www.w3.org/2000/svg" xmlns:xlink="http://www.w3.org/1999/xlink" version="1.1" width="3060.726549792156" 
        height="3173.504427977589" viewBox="0 0 3060.726549792156 3173.504427977589">
			
			<g transform="scale(8.67522139887945) translate(10, 10)">
				<defs id="SvgjsDefs23286"></defs><g id="SvgjsG23287" featureKey="rootContainer" transform="matrix(6.65625,0,0,6.65625,0.3328082151710987,13)" fill="#ffffff"><path xmlns="http://www.w3.org/2000/svg" d="M24.95 0a25 25 0 1 0 25 25 25 25 0 0 0-25-25zm0 46.91a22 22 0 1 1 22-22 22 22 0 0 1-22 21.99z"></path><path xmlns="http://www.w3.org/2000/svg" d="M24.95 3.65a21.3 21.3 0 1 0 21.3 21.3 21.33 21.33 0 0 0-21.3-21.3z"></path></g><g id="SvgjsG23288" featureKey="symbolFeature-0" transform="matrix(0.666662750267148,0,0,0.666662750267148,133.0139979493834,98.04788301948605)" fill="#ff8364"><g xmlns="http://www.w3.org/2000/svg"><path d="M30.103,31.092c0,1.787-0.697,3.469-1.962,4.733c-0.621,0.622-0.621,1.628,0,2.25c0.311,0.311,0.718,0.466,1.125,0.466   c0.407,0,0.814-0.155,1.125-0.466c1.866-1.865,2.894-4.345,2.894-6.982c0-2.638-1.026-5.117-2.892-6.982   c-1.265-1.265-1.961-2.946-1.961-4.734c0-1.787,0.697-3.468,1.962-4.733c0.621-0.621,0.621-1.628,0-2.25   c-0.621-0.621-1.628-0.621-2.25,0c-1.866,1.865-2.894,4.345-2.894,6.982c0,2.638,1.027,5.118,2.893,6.984   C29.407,27.624,30.103,29.304,30.103,31.092z"></path><path d="M50.554,31.092c0,1.787-0.697,3.469-1.961,4.733c-0.621,0.622-0.621,1.628,0,2.25c0.311,0.311,0.718,0.466,1.125,0.466   s0.814-0.155,1.125-0.466c1.866-1.866,2.894-4.345,2.894-6.982c0-2.638-1.026-5.118-2.892-6.982   c-1.265-1.265-1.961-2.946-1.96-4.733c0-1.788,0.697-3.469,1.961-4.734c0.621-0.621,0.621-1.628,0-2.25   c-0.622-0.621-1.628-0.621-2.25,0c-1.866,1.865-2.894,4.345-2.894,6.982c-0.001,2.638,1.026,5.118,2.892,6.985   C49.859,27.624,50.555,29.304,50.554,31.092z"></path><path d="M70.468,31.092c-0.001,1.787-0.698,3.469-1.962,4.733c-0.622,0.622-0.622,1.628,0,2.25   c0.311,0.311,0.717,0.466,1.124,0.466s0.814-0.155,1.125-0.466c1.866-1.865,2.894-4.345,2.895-6.982   c0-2.638-1.027-5.118-2.893-6.982c-1.265-1.265-1.96-2.946-1.96-4.734c0-1.787,0.696-3.468,1.961-4.732   c0.622-0.622,0.622-1.629,0.001-2.25c-0.621-0.621-1.629-0.621-2.25,0c-1.866,1.866-2.894,4.345-2.894,6.983   c-0.001,2.638,1.026,5.118,2.893,6.984C69.771,27.624,70.468,29.304,70.468,31.092z"></path><path d="M49.316,45.139c-11.369,0-21.431,5.681-27.515,14.348h55.03C70.747,50.82,60.686,45.139,49.316,45.139z"></path><path d="M80.643,59.487h14.017c-4.044-5.58-10.61-9.212-18.028-9.212c-1.252,0-2.475,0.117-3.67,0.318   C75.97,53.125,78.569,56.126,80.643,59.487z"></path><path d="M27.719,48.992c-1.071-0.159-2.163-0.251-3.277-0.251c-8.079,0-15.153,4.305-19.052,10.746h12.6   C20.519,55.386,23.833,51.82,27.719,48.992z"></path><path d="M99.644,62.351c-0.302-0.387-0.765-0.614-1.255-0.614H1.57c-0.491,0-0.954,0.228-1.256,0.614   c-0.301,0.388-0.407,0.893-0.286,1.368C3.02,75.507,13.169,84.141,25.333,85.207c3.001,0.167,5.881,1.377,8.11,3.405   c0.293,0.266,0.675,0.414,1.071,0.414h30.93c0.396,0,0.777-0.148,1.07-0.414c2.229-2.028,5.109-3.238,8.16-3.409   c12.115-1.062,22.264-9.696,25.256-21.484C100.052,63.243,99.946,62.738,99.644,62.351z M74.447,82.029   c-3.52,0.197-6.904,1.547-9.601,3.815H35.111c-2.696-2.27-6.078-3.618-9.55-3.812c-10.077-0.884-18.625-7.661-21.86-17.115h92.555   C93.021,74.372,84.478,81.149,74.447,82.029z"></path></g></g><g id="SvgjsG23289" featureKey="nameFeature-0" transform="matrix(0.6572848587087284,0,0,0.6572848587087284,57.59893849137198,170.5157417246406)" fill="#ff8364"><path d="M20.02 16.934 l-10.469 0 l0 6.4063 l9.2773 0 l0 5.0977 l-9.2773 0 l0 6.3867 l10.469 0 l0 5.1758 l-16.367 0 l0 -28.223 l16.367 0 l0 5.1563 z M51.079570312499996 11.777000000000001 l0 5.1563 l-6.6992 0 l0 23.066 l-5.8008 0 l0 -23.066 l-6.7383 0 l0 -5.1563 l19.238 0 z M81.962578125 11.777000000000001 l5.8594 0 l0 28.223 l-5.8594 0 l0 -11.602 l-11.934 0 l0 11.602 l-5.8594 0 l0 -28.223 l5.8594 0 l0 11.523 l11.934 0 l0 -11.523 z M123.0618359375 11.777000000000001 l5.8398 0 l0 28.223 l-6.7773 0 l-12.5 -20.176 l0 20.176 l-5.8398 0 l0 -28.223 l6.6992 0 l12.578 20.059 l0 -20.059 z M144.8632375 40 l0 -28.223 l5.8594 0 l0 28.223 l-5.8594 0 z M179.1646953125 40.39063 c-8.3008 0 -14.434 -5.6445 -14.434 -14.512 s6.1328 -14.492 14.434 -14.492 c6.2891 0 11.328 3.2227 13.34 8.5742 l-5.4688 1.9922 c-1.25 -3.2813 -4.2383 -5.1758 -7.8711 -5.1758 c-4.8633 0 -8.5938 3.3984 -8.5938 9.1016 s3.7305 9.1211 8.5938 9.1211 c3.6328 0 6.6211 -1.9141 7.8711 -5.1953 l5.4688 1.9922 c-2.0117 5.3516 -7.0508 8.5938 -13.34 8.5938 z M221.123453125 25.098 c3.1836 0.87891 5.3125 2.9688 5.3125 6.9922 c0 4.7656 -2.8906 7.9102 -8.8477 7.9102 l-11.621 0 l0 -28.223 l9.1406 0 c6.0938 0 9.2969 2.9297 9.2969 7.7344 c0 2.4805 -1.0742 4.5117 -3.2813 5.5859 z M215.166453125 16.641 l-3.5547 0 l0 6.6406 l3.8086 0 c2.5 0 3.5938 -1.4844 3.5938 -3.3984 c0 -1.875 -1.2305 -3.2422 -3.8477 -3.2422 z M216.494453125 34.9805 c3.1641 0 4.2578 -1.6992 4.2578 -3.5352 c0 -1.875 -1.0742 -3.6523 -4.375 -3.6523 l-4.7656 0 l0 7.1875 l4.8828 0 z M240.3075734375 40 l0 -28.223 l5.8594 0 l0 28.223 l-5.8594 0 z M278.47703125 11.777000000000001 l0 5.1563 l-6.6992 0 l0 23.066 l-5.8008 0 l0 -23.066 l-6.7383 0 l0 -5.1563 l19.238 0 z M307.9350390625 16.934 l-10.469 0 l0 6.4063 l9.2773 0 l0 5.0977 l-9.2773 0 l0 6.3867 l10.469 0 l0 5.1758 l-16.367 0 l0 -28.223 l16.367 0 l0 5.1563 z"></path></g><g id="SvgjsG23290" featureKey="sloganFeature-0" transform="matrix(0.5669242619482523,0,0,0.5669242619482523,58.964966484823414,213.7723237417079)" fill="#ff8364"><path d="M10.146 8.467 l-5.3711 0 l0 3.2031 l4.6387 0 l0 2.5488 l-4.6387 0 l0 5.7813 l-2.9492 0 l0 -14.111 l8.3203 0 l0 2.5781 z M20.0976125 20 l-3.6719 -6.2109 l-0.84961 0 l0 6.2109 l-2.9297 0 l0 -14.111 l5.1172 0 c3.1934 0 4.541 1.8848 4.541 4.2188 c0 1.8945 -1.0742 3.125 -2.9883 3.5352 l4.248 6.3574 l-3.4668 0 z M15.5762125 8.32 l0 3.3691 l1.7285 0 c1.5625 0 2.1973 -0.66406 2.1973 -1.6797 c0 -1.0059 -0.63477 -1.6895 -2.1973 -1.6895 l-1.7285 0 z M31.96291875 20.19531 c-4.1504 0 -7.2168 -2.832 -7.2168 -7.2559 c0 -4.4336 3.0664 -7.2461 7.2168 -7.2461 c4.1406 0 7.207 2.8125 7.207 7.2461 c0 4.4238 -3.0664 7.2559 -7.207 7.2559 z M31.96291875 17.5098 c2.4316 0 4.2969 -1.709 4.2969 -4.5703 c0 -2.8516 -1.8652 -4.5508 -4.2969 -4.5508 s-4.2969 1.6992 -4.2969 4.5508 c0 2.8613 1.8652 4.5703 4.2969 4.5703 z M58.037062500000005 20 l-2.9199 0 l-0.92773 -10.635 l-3.5742 10.635 l-1.8945 0 l-3.5742 -10.635 l-0.9375 10.635 l-2.9297 0 l1.1816 -14.111 l4.1797 0 l3.0078 8.8574 l3.0469 -8.8574 l4.1797 0 z M74.48265625 5.888999999999999 l0 2.5781 l-3.3496 0 l0 11.533 l-2.9004 0 l0 -11.533 l-3.3691 0 l0 -2.5781 l9.6191 0 z M85.596046875 5.888999999999999 l2.9297 0 l0 14.111 l-2.9297 0 l0 -5.8008 l-5.9668 0 l0 5.8008 l-2.9297 0 l0 -14.111 l2.9297 0 l0 5.7617 l5.9668 0 l0 -5.7617 z M100.3615625 8.467 l-5.2344 0 l0 3.2031 l4.6387 0 l0 2.5488 l-4.6387 0 l0 3.1934 l5.2344 0 l0 2.5879 l-8.1836 0 l0 -14.111 l8.1836 0 l0 2.5781 z M103.378934375 20 l0 -14.111 l2.9297 0 l0 14.111 l-2.9297 0 z M117.4023 20 l-3.6719 -6.2109 l-0.84961 0 l0 6.2109 l-2.9297 0 l0 -14.111 l5.1172 0 c3.1934 0 4.541 1.8848 4.541 4.2188 c0 1.8945 -1.0742 3.125 -2.9883 3.5352 l4.248 6.3574 l-3.4668 0 z M112.8809 8.32 l0 3.3691 l1.7285 0 c1.5625 0 2.1973 -0.66406 2.1973 -1.6797 c0 -1.0059 -0.63477 -1.6895 -2.1973 -1.6895 l-1.7285 0 z M136.56271875 20 l-4.3848 -5.9961 l-1.0352 0 l0 5.9961 l-2.9297 0 l0 -14.111 l2.9297 0 l0 5.5469 l0.99609 0 l4.4238 -5.5469 l3.5742 0 l-5.4688 6.748 l5.6348 7.3633 l-3.7402 0 z M142.402371875 20 l0 -14.111 l2.9297 0 l0 14.111 l-2.9297 0 z M157.1584375 5.888999999999999 l0 2.5781 l-3.3496 0 l0 11.533 l-2.9004 0 l0 -11.533 l-3.3691 0 l0 -2.5781 l9.6191 0 z M165.625028125 20.19531 c-4.1504 0 -7.2168 -2.8223 -7.2168 -7.2559 s3.0664 -7.2461 7.2168 -7.2461 c3.1445 0 5.6641 1.6113 6.6699 4.2871 l-2.7344 0.99609 c-0.625 -1.6406 -2.1191 -2.5879 -3.9355 -2.5879 c-2.4316 0 -4.2969 1.6992 -4.2969 4.5508 s1.8652 4.5605 4.2969 4.5605 c1.8164 0 3.3105 -0.95703 3.9355 -2.5977 l2.7344 0.99609 c-1.0059 2.6758 -3.5254 4.2969 -6.6699 4.2969 z M183.59409375 5.888999999999999 l2.9297 0 l0 14.111 l-2.9297 0 l0 -5.8008 l-5.9668 0 l0 5.8008 l-2.9297 0 l0 -14.111 l2.9297 0 l0 5.7617 l5.9668 0 l0 -5.7617 z M198.359609375 8.467 l-5.2344 0 l0 3.2031 l4.6387 0 l0 2.5488 l-4.6387 0 l0 3.1934 l5.2344 0 l0 2.5879 l-8.1836 0 l0 -14.111 l8.1836 0 l0 2.5781 z M211.01578125 5.888999999999999 l2.9199 0 l0 14.111 l-3.3887 0 l-6.25 -10.088 l0 10.088 l-2.9199 0 l0 -14.111 l3.3496 0 l6.2891 10.029 l0 -10.029 z M230.96703125 5.888999999999999 l0 2.5781 l-3.3496 0 l0 11.533 l-2.9004 0 l0 -11.533 l-3.3691 0 l0 -2.5781 l9.6191 0 z M239.433621875 20.19531 c-4.1504 0 -7.2168 -2.832 -7.2168 -7.2559 c0 -4.4336 3.0664 -7.2461 7.2168 -7.2461 c4.1406 0 7.207 2.8125 7.207 7.2461 c0 4.4238 -3.0664 7.2559 -7.207 7.2559 z M239.433621875 17.5098 c2.4316 0 4.2969 -1.709 4.2969 -4.5703 c0 -2.8516 -1.8652 -4.5508 -4.2969 -4.5508 s-4.2969 1.6992 -4.2969 4.5508 c0 2.8613 1.8652 4.5703 4.2969 4.5703 z M265.117078125 5.888999999999999 l-4.6387 7.3535 l0 6.7578 l-2.9395 0 l0 -6.6895 l-4.668 -7.4219 l3.2422 0 l2.8809 4.8047 l2.8906 -4.8047 l3.2324 0 z M273.3496375 20.19531 c-4.1504 0 -7.2168 -2.832 -7.2168 -7.2559 c0 -4.4336 3.0664 -7.2461 7.2168 -7.2461 c4.1406 0 7.207 2.8125 7.207 7.2461 c0 4.4238 -3.0664 7.2559 -7.207 7.2559 z M273.3496375 17.5098 c2.4316 0 4.2969 -1.709 4.2969 -4.5703 c0 -2.8516 -1.8652 -4.5508 -4.2969 -4.5508 s-4.2969 1.6992 -4.2969 4.5508 c0 2.8613 1.8652 4.5703 4.2969 4.5703 z M288.47658125 20.19531 c-3.0957 0 -5.5176 -1.582 -5.5176 -5.1367 l0 -9.1699 l2.9297 0 l0 8.7695 c0 2.1484 1.1426 2.9492 2.5879 2.9492 c1.4551 0 2.6074 -0.81055 2.6074 -2.9492 l0 -8.7695 l2.9297 0 l0 9.1699 c0 3.5547 -2.4316 5.1367 -5.5371 5.1367 z M304.824175 20 l-3.6719 -6.2109 l-0.84961 0 l0 6.2109 l-2.9297 0 l0 -14.111 l5.1172 0 c3.1934 0 4.541 1.8848 4.541 4.2188 c0 1.8945 -1.0742 3.125 -2.9883 3.5352 l4.248 6.3574 l-3.4668 0 z M300.302775 8.32 l0 3.3691 l1.7285 0 c1.5625 0 2.1973 -0.66406 2.1973 -1.6797 c0 -1.0059 -0.63477 -1.6895 -2.1973 -1.6895 l-1.7285 0 z M324.53159375 5.888999999999999 l2.9297 0 l0 14.111 l-2.9297 0 l0 -5.8008 l-5.9668 0 l0 5.8008 l-2.9297 0 l0 -14.111 l2.9297 0 l0 5.7617 l5.9668 0 l0 -5.7617 z M339.297109375 8.467 l-5.2344 0 l0 3.2031 l4.6387 0 l0 2.5488 l-4.6387 0 l0 3.1934 l5.2344 0 l0 2.5879 l-8.1836 0 l0 -14.111 l8.1836 0 l0 2.5781 z M351.75828125 20 l-1.0254 -2.9102 l-5.9277 0 l-1.0254 2.9102 l-2.998 0 l5.1953 -14.111 l3.584 0 l5.1953 14.111 l-2.998 0 z M345.66408125 14.6387 l4.209 0 l-2.0996 -5.9863 z M364.326128125 20 l-3.6719 -6.2109 l-0.84961 0 l0 6.2109 l-2.9297 0 l0 -14.111 l5.1172 0 c3.1934 0 4.541 1.8848 4.541 4.2188 c0 1.8945 -1.0742 3.125 -2.9883 3.5352 l4.248 6.3574 l-3.4668 0 z M359.804728125 8.32 l0 3.3691 l1.7285 0 c1.5625 0 2.1973 -0.66406 2.1973 -1.6797 c0 -1.0059 -0.63477 -1.6895 -2.1973 -1.6895 l-1.7285 0 z M378.125234375 5.888999999999999 l0 2.5781 l-3.3496 0 l0 11.533 l-2.9004 0 l0 -11.533 l-3.3691 0 l0 -2.5781 l9.6191 0 z"></path></g>
			</g>
		</svg>
	