<svg id="Capa_1" enable-background="new 0 0 512 512" height="512" viewBox="0 0 512 512" width="512" xmlns="http://www.w3.org/2000/svg"><g><g><path d="m238.326 136.566c4.137 0 7.492-3.354 7.492-7.492 0-3.915 3.184-7.099 7.099-7.099 4.137 0 7.492-3.354 7.492-7.492s-3.354-7.492-7.492-7.492c-12.176 0-22.082 9.906-22.082 22.082 0 4.139 3.354 7.493 7.491 7.493z"/><path d="m473.06 225.588c9.932-4.618 16.838-14.685 16.838-26.34 0-16.011-13.026-29.037-29.037-29.037h-4.187c-.516-20.787-16.362-37.75-36.647-40.026l9.323-15.856c2.982-5.072 8.757-8.004 15.075-7.658 29.877 1.647 43.285-37.404 18.837-54.653-6.599-4.655-14.574-6.457-22.486-5.088-2.827-8.08-9.007-14.595-16.991-17.897-26.592-11.003-52.306 18.504-36.98 43.762.033.108 5.557 8.504.625 16.891l-9.225 15.689c-10.317-17.659-31.74-24.853-50.449-17.726-11.161-15.288-31.309-21.059-48.732-14.099-13.651-9.198-31.96-9.495-46.053 0-17.44-6.964-37.58-1.175-48.732 14.1-19.435-7.404-41.672.669-51.468 19.564-16.515-.879-31.85 8-39.231 22.818-20.978 1.552-37.689 18.813-38.219 40.18h-4.187c-16.011 0-29.037 13.026-29.037 29.037 0 11.655 6.906 21.722 16.838 26.34-7.939 15.755-56.39 54.638-32.258 115.463 20.032 50.491 54.522 93.275 99.743 123.727 19.972 13.449 43.402 20.558 67.756 20.558h163.645c24.354 0 47.783-7.109 67.756-20.558 45.22-30.452 79.711-73.236 99.743-123.727 24.133-60.836-24.268-99.603-32.26-115.464zm-31.383-55.377h-20.08c.039-8.107-.081-16.358-.349-24.642 11.206 2.554 19.946 12.395 20.429 24.642zm-144.274 0c26.184-19.372 54.565-35.275 75.404-45.916 6.857-3.501 14.772-3.014 21.172 1.304.257.173.523.33.799.47 6.885 3.494 11.159 10.174 11.433 17.867.314 8.835.445 17.639.402 26.275zm-6.196-29.188c0-17.597 24.649-21.846 30.554-5.256-8.422 5.197-17.024 10.815-25.516 16.803-3.175-2.935-5.038-7.081-5.038-11.547zm126.85-98.146c4.141 1.713 7.203 4.955 8.62 9.129 2.319 6.83 9.419 11.005 16.517 9.711 4.012-.732 8.07.171 11.43 2.543 12.472 8.8 5.183 28.284-9.376 27.449-11.946-.657-22.978 5.099-28.814 15.025l-6.786 11.541c-3.896-3.542-11.016-7.749-16.085-9.458l6.783-11.536c5.809-9.879 5.539-22.225-.741-32.276-7.84-12.918 5.281-27.578 18.452-22.128zm-321.371 102.021h.005c4.164 0 7.855-2.468 9.403-6.288 4.625-11.4 16.264-17.911 28.205-16.209 4.582.647 9.018-1.878 10.779-6.151 5.93-14.388 22.786-20.395 36.354-13.479 4.808 2.451 10.69.713 13.389-3.957 6.869-11.88 21.867-16.625 34.343-10.578 3.436 1.665 7.61 1.216 10.637-1.143 9.415-7.342 22.753-7.517 32.394.001 3.025 2.357 7.199 2.805 10.636 1.141 12.499-6.058 27.485-1.282 34.343 10.578 2.7 4.67 8.581 6.409 13.391 3.957 11.736-5.984 26.434-2.396 33.932 8.948-8.885 4.565-19.026 10.028-29.755 16.271-14.005-29.701-58.518-19.556-58.518 13.033 0 7.725 2.864 14.951 7.824 20.482-3.721 2.835-7.39 5.738-10.982 8.706h-87.321c-8.168-41.834-68.421-41.901-76.602 0h-38.827c.553-14.016 12.048-25.312 26.37-25.312zm73.604 25.313h-45.692c7.228-21.985 38.446-22.04 45.692 0zm-114.794 58.074h304.884c4.137 0 7.492-3.354 7.492-7.492s-3.354-7.492-7.492-7.492h-309.247c-7.75 0-14.054-6.304-14.054-14.054s6.304-14.054 14.054-14.054h397.424c.01 0 .02.001.03.001.011 0 .022-.001.033-.001h12.239c7.75 0 14.054 6.304 14.054 14.054 0 7.749-6.304 14.054-14.054 14.054h-65.52c-4.137 0-7.492 3.354-7.492 7.492s3.354 7.492 7.492 7.492h61.157c22.132 31.785 30.602 38.576 36.427 56.034h-399.744c-4.137 0-7.492 3.354-7.492 7.492s3.354 7.492 7.492 7.492h403.066c1.381 12.049-.19 24.464-4.855 36.224-2.2 5.544-4.592 10.986-7.155 16.326l-43.844 21.204c-3.36 1.624-7.213 1.624-10.572 0l-42.612-20.608c-7.505-3.629-16.114-3.63-23.62 0l-42.608 20.608c-3.361 1.625-7.214 1.625-10.573 0l-42.607-20.607c-7.505-3.63-16.115-3.63-23.62.001l-42.604 20.606c-3.359 1.625-7.213 1.626-10.573 0l-42.607-20.607c-7.505-3.63-16.114-3.63-23.62 0l-42.607 20.607c-3.36 1.625-7.214 1.625-10.573 0l-43.837-21.203c-2.564-5.341-4.956-10.782-7.155-16.326-4.665-11.76-6.236-24.175-4.855-36.224h42.221c4.137 0 7.492-3.354 7.492-7.492s-3.354-7.492-7.492-7.492h-38.9c5.823-17.454 14.289-24.242 36.427-56.035zm341.709 224.065c-17.49 11.777-38.025 18.003-59.386 18.003h-163.645c-21.361 0-41.896-6.225-59.386-18.003-30.524-20.555-55.865-47.059-74.747-77.914l25.03 12.106c7.505 3.631 16.114 3.63 23.621 0l42.606-20.607c3.36-1.625 7.215-1.625 10.573 0l42.606 20.606c7.505 3.631 16.115 3.63 23.621 0l42.604-20.607c3.36-1.625 7.213-1.626 10.573 0l42.607 20.607c7.506 3.631 16.115 3.63 23.62 0l42.609-20.608c3.359-1.625 7.213-1.625 10.572 0l42.612 20.608c3.753 1.814 7.781 2.722 11.809 2.722s8.057-.907 11.809-2.722l25.039-12.109c-18.881 30.858-44.223 57.363-74.747 77.918z"/></g></g></svg>