<?xml version="1.0" encoding="iso-8859-1"?>
<!-- Generator: Adobe Illustrator 19.0.0, SVG Export Plug-In . SVG Version: 6.00 Build 0)  -->
<svg version="1.1" id="Capa_1" xmlns="http://www.w3.org/2000/svg" xmlns:xlink="http://www.w3.org/1999/xlink" x="0px" y="0px"
	 viewBox="0 0 512.001 512.001" style="enable-background:new 0 0 512.001 512.001;" xml:space="preserve">
<g>
	<g>
		<g>
			<path d="M499.165,190.818c-8.592-30.484-21.378-60.385-40.557-85.61c-7.231-9.512-15.372-18.359-24.539-26.323
				c-16.398-14.245-28.399-30.284-46.926-42.359c-30.507-19.883-60.759-30.201-96.98-34.393
				C224.043-5.52,159.698,6.928,106.04,47.486c-39.78,30.068-68.851,71.262-85.313,118.238
				C3.673,214.388-3.074,268.97,9.774,319.393c12.848,50.425,43.839,97.539,84.542,129.88c42.405,33.693,95.45,52.8,148.79,59.899
				c52.33,6.964,109.638,2.153,155.204-26.664C491.695,423.45,528.225,293.927,499.165,190.818z M488.636,326.147
				c-11.284,47.043-33.41,90.912-69.306,123.969c-76.334,70.297-200.077,58.52-285.385,10.7
				C89.337,435.811,53.772,396.299,33.072,349.52c-20.714-46.81-21.349-97.339-10.651-146.753
				c11.192-51.689,35.107-101.956,74.137-138.394c15.114-14.111,30.058-20.38,48.697-29.246
				c15.706-7.471,32.645-14.491,49.78-18.061c58.999-12.292,113.495-8.607,167.689,19.72c24.691,12.906,44.715,30.715,63.806,50.776
				c19.955,20.972,37.019,42.038,47.957,69.072c10.87,26.865,19.189,54.493,22.121,83.43
				C499.566,269.25,495.44,297.781,488.636,326.147z"/>
			<path d="M172.275,162.39c2.887,1.563,7.384-0.331,7.062-4.052c-0.89-10.269-2.92-35.385,14.266-25.243
				c2.156,1.273,4.462-0.024,5.276-2.146c2.502-6.529,6.165-12.855,11.359-17.615c8.28-7.586,15.163-5.717,24.455-1.039
				c1.873,0.943,4.437-1.08,3.091-3.091c-14.308-21.384-35.83-0.332-44.046,15.88c-17.405-7.795-22.954,10.619-23.733,26.416
				c-18.49-4.037-24.729,23.279-14.011,38.223c-9.392,4.493-17.533,10.754-18.425,22.462c-0.79,10.362,4.6,21.583,15.106,24.283
				c3.12,0.802,4.201-3.619,1.306-4.733c-8.983-3.458-11.569-15.951-7.837-23.788c3.587-7.536,11.322-10.994,19.263-12.118
				c3.464-0.49,4.577-5.729,2.081-7.881C159.739,181.269,155.679,153.408,172.275,162.39z"/>
			<path d="M215.934,177.658c1.113,3.014,5.882,1.815,4.895-1.35c-1.5-4.801-0.779-9.824,0.666-14.565
				c1.111-3.641,7.412-18.604,13.024-9.135c1.684,2.84,6.801,2.599,7.483-0.978c1.515-7.953,5.829-21.524,17.48-15.322
				c2.613,1.391,6.398,0.28,7.096-2.887c3.135-14.24,16.082-18.431,28.17-11.991c2.376,1.266,5.14-1.309,3.74-3.74
				c-9.914-17.206-32.638-6.403-39.566,8.302c-11.809-2.637-22.296,5.988-24.555,17.968
				C219.667,139.596,210.801,163.761,215.934,177.658z"/>
			<path d="M216.613,268.268c6.832,4.512,13.713,7.085,21.909,1.869c6.818-4.339,9.091-11.099,10.271-18.363
				c3.967,1.294,7.988,1.039,11.717-2.221c2.46-2.15,3.797-5.236,5.221-8.087c2.459-4.916,2.207-5.737,7.73-5.537
				c10.027,0.363,18.296-3.485,23.019-13.445c4.825-10.171,0.423-19.875-5.47-28.436c-1.48-2.15-4.921-0.868-4.282,1.805
				c2.357,9.855,5.814,21.793-4.111,29.068c-7.019,5.144-10.223-0.705-16.633,2.431c-7.783,3.807-8.226,20.425-18.445,14.466
				c-2.137-1.247-5.739-0.223-6.182,2.515c-0.754,4.656-1.317,11.326-4.647,14.822c-6.486,6.808-13.71,3.549-20.104-0.687
				c-2.337-1.548-5.054,0.124-5.906,2.402c-0.995,2.662-1.53,6.634-3.245,8.909c-8.003,10.628-16.434,1.05-14.943-8.398
				c0.227-1.44-1.704-2.017-2.206-0.608c-2.861,8.025-0.033,19.297,9.248,21.578C209.523,284.799,213.739,276.194,216.613,268.268z"
				/>
			<path d="M251.251,183.46c-2.414-1.551-5.243,0.52-5.391,3.093c-0.258,4.532-1.175,9.043-3.229,13.125
				c-3.884,7.72-9.131,4.092-12.971-2.303c-1.378-2.294-4.571-0.289-3.517,2.055c2.976,6.621,8.398,14.969,16.71,10.53
				c5.935-3.17,8.54-10.386,9.587-17.16c3.944,2.384,8.138,4.12,13,3.277c6.313-1.095,11.218-6.126,13.975-11.628
				c3.777-7.537,4.916-24.323-7.882-22.67c-1.987,0.257-3.523,2.641-1.775,4.285c4.372,4.107,3.921,9.491,1.453,14.634
				C266.651,190.206,258.614,188.19,251.251,183.46z"/>
			<path d="M161.262,267.025c-16.41-1.574-26.609,15.034-25.057,29.647c-10.336-0.522-22.467,5.362-22.137,14.688
				c-10.382-2.299-21.789,4.937-16.419,17.368c0.896,2.074,4.426,0.594,3.67-1.547c-4.132-11.69,9.782-13.685,15.842-7.888
				c2.587,2.475,6.23-0.629,4.775-3.684c-5.356-11.241,12.045-13.656,17.843-9.728c3.033,2.054,7.258-1.355,6.183-4.753
				c-4.802-15.166,4.919-21.823,17.101-27.45C166.609,272.04,164.39,267.325,161.262,267.025z"/>
			<path d="M197.082,220.72c-4.189-10.299-16.761-4.339-21.249,2.299c-4.551,6.731-5.816,17.538,2.394,22.001
				c2.432,1.322,5.331-2.02,3.075-3.986c-4.078-3.556-2.492-9.794,0.339-13.671c1.32-1.807,3.153-3.523,5.371-4.084
				c2.443-0.618,5.105,0.551,7.569,0.723C196.131,224.112,197.698,222.235,197.082,220.72z"/>
			<path d="M468.1,254.753c-6.209,3.725-13.298,7.507-20.447,11.589c6.136-8.622,11.423-17.792,15.593-27.564
				c4.435-10.393,9.879-22.568,4.399-33.596c-3.434-6.912-11.844-15.479-19.663-17.124c-9.212-1.939-15.586,6.645-20.809,12.792
				c-4.083,4.803-8.005,9.76-11.868,14.772c-1.153-3.458-3.636-6.485-7.697-8.67c15.165-8.774,27.456-35.779,25.47-51.167
				c-1.898-14.699-18.288-32.053-33.601-22.591c-14.267,8.816-17.509,28.962-25.464,42.448c-4.526,7.672-10.667,14.701-17.194,21.24
				c3.275-11.334,2.43-22.55-1.582-34.864c-5.785-17.757,2.612-36.441-1.744-55.062c-3.789-16.189-13.254-31.206-24.95-42.882
				c-6.096-6.086-13.459-11.783-21.616-14.754c-8.888-3.237-18.252-1.385-27.487-2.563c-13.794-1.759-25.924-1.672-37.673,2.118
				c-2.165,0.525-4.33,1.192-6.493,2.044c-3.764,1.484-6.809,3.424-9.613,5.75c-0.665,0.434-1.328,0.853-1.993,1.318
				c-0.76,0.53-1.234,1.179-1.488,1.862c-0.841,0.837-1.679,1.698-2.524,2.609c-7.226,7.793-11.014,8.149-20.855,8.52
				c-14.498,0.546-28.132,5.485-39.606,14.344c-5.791,4.471-10.67,9.646-15.347,15.251c-5.647,6.767-11.072,9.849-18.554,14.217
				c-14.714,8.59-19.016,19.914-24.529,35.245c-5.693,15.83-14.953,28.554-12.759,46.278c1.019,8.235,4.036,16.035,9.112,22.657
				c1.543,2.011,3.763,3.659,5.175,5.689c3.699,5.32,2.236,8.764,0.504,14.331c-3.533,11.351,0.468,22.142,5.263,32.366
				c-4.648,0.464-9.68-0.054-14.003,0.317c-5.581,0.48-11.051,1.815-16.461,3.222c-9.874,2.569-30.395,10.749-35.558,20.453
				c-3.441,6.472,1.516,16.639,5.011,22.006c11.054,16.972,26.222,30.972,42.619,42.667c12.843,9.161,26.828,16.482,41.237,22.847
				c10.074,4.45,21.122,9.818,32.445,8.449c7.84-0.948,13.487-4.184,17.465-8.826c0.891,1.846,2.015,3.558,3.16,4.973
				c2.46,3.043,6.773,6.391,10.967,6.891c1.625,8.276,6.648,15.963,14.272,19.332c0.166,0.073,0.337,0.126,0.51,0.175
				c-1.454,3.061-2.023,6.641-1.185,11.001c2.609,13.586,16.152,20.442,29.067,20.356c12.437-0.083,25.321-5.927,36.883-12.909
				c0.92,9.705,3.538,20.232,13.147,24.309c11.615,4.928,26.379-0.282,37.589-3.833c35.406-11.215,68.49-28.808,97.346-52.235
				c13.47-10.936,40.913-33.073,38.685-53.534c-2.828-25.966-38.257-5.12-51.468,3.984c2.003-1.731,4.021-3.443,6.086-5.088
				c13.871-11.051,28.424-21.219,41.975-32.677c18.102-15.307,35.113-36.862,15.01-57.869
				C471.669,254.125,469.566,253.873,468.1,254.753z M457.575,269.707c-2.503,4.418-4.074,9.705-4.33,14.754
				c-16.455,12.585-33.4,24.594-49.787,37.309c0.647-3.27,0.898-6.526,0.461-9.616c2.995-2.751,5.948-5.506,8.883-8.179
				c6.53-5.945,12.89-12.037,18.928-18.441c2.938-2.041,5.886-4.047,8.893-5.897C446.201,276.206,451.877,272.937,457.575,269.707z
				 M455.106,205.365c3.523,4.048,4.894,9.376,3.812,14.891c-4.254,21.682-20.24,42.662-35.073,58.266
				c-15.217,16.011-33.145,28.853-49.32,43.672c0.911-6.152,0.419-13.749-2.015-20.219c8.006-3.641,14.505-9.411,21.359-15.087
				c10.489-8.686,20.128-17.799,29.079-28.086C435.462,244.419,452.7,225.483,455.106,205.365z M364.274,364.171
				c3.926-9.068,8.548-19.267,9.31-29.359c0.63-0.055,1.274-0.213,1.916-0.576c6.121-3.455,11.857-7.744,17.377-12.35
				c-0.261,1.414-0.561,2.824-0.961,4.221c-1.972,6.888-4.714,13.651-7.751,20.132c-4.35,9.281-11.471,18.812-11.54,29.391
				c-4.286,2.594-8.582,5.161-12.866,7.726c-2.386,1.428-4.788,2.837-7.21,4.214C357.37,380.256,360.986,371.767,364.274,364.171z
				 M343.54,392.445c-5.034,2.572-10.178,4.921-15.481,6.884c-4.785,1.771-9.621,2.918-14.483,3.908
				c9.411-8.312,18.353-17.165,26.913-26.333c7.974-8.543,16.743-18.277,23.477-28.923c-2.16,5.725-4.107,11.553-6.48,16.874
				C353.315,374.203,347.487,383.021,343.54,392.445z M416.384,230.026c6.58-8.077,13.111-16.108,20.001-23.923
				c3.709-4.208,6.948-6.864,11.253-5.767c-4.05,8.385-6.625,17.274-11.528,25.36c-6.073,10.018-13.534,19.188-21.025,28.165
				c-12.403,14.865-27.628,33.236-44.779,43.522c-2.436-4.057-5.902-7.24-10.632-8.609c-1.269-0.367-2.518-0.56-3.752-0.629
				c4.065-3.432,8.34-6.66,12.259-10.167c5.235-4.685,10.354-9.486,15.447-14.317C395.997,254.093,406.567,242.08,416.384,230.026z
				 M339.811,270.91c-8.945,11.513-17.115,23.642-24.463,36.233c-6.421,11.005-15.148,23.759-18.118,36.513
				c-4.552-6.03-14.228-8.444-21.885-6.697c1.572-4.981,4.445-9.729,7.486-14.114l0.01-0.005c1.139-0.592,1.672-1.516,1.758-2.486
				c0.44-0.61,0.881-1.215,1.317-1.808c8.548-11.645,18.005-22.861,27.258-33.947c17.557-21.036,37.337-41.631,59.218-58.305
				c5.165-3.936,20.103-15.034,28.766-11.73C377.38,229.461,357.028,248.75,339.811,270.91z M405.429,218.524
				c3.263,7.326-9.712,18.967-13.988,23.348c-8.701,8.913-17.592,17.648-26.527,26.325c-7.508,7.292-17.837,14.61-22.406,24.441
				c-9.473,6.692-17.302,19.172-22.875,26.132c-3.62,4.521-7.297,8.938-11.031,13.274c3.017-5.769,5.763-11.737,8.875-17.101
				c7.255-12.505,15.05-24.723,23.695-36.317C358.893,254.86,380.176,234.136,405.429,218.524z M292.123,350.289
				c-3.89,4.086-7.834,8.122-11.887,12.074c-3.487-6.301-6.484-12.518-6.03-19.625c3.197,0.399,6.553,0.124,9.695,0.943
				C287.888,344.72,289.763,347.658,292.123,350.289z M273.884,318.296c-8.055,3.059-15.236,7.856-23.573,10.306
				c-6.585,1.935-13.889,2.151-19.482-2.273c-4.561-3.607-5.738-7.711-6.114-12.367c0.237,0.014,0.439,0.026,0.706,0.041
				c3.544,0.197,6.958,0.28,10.497-0.211c8.41-1.166,16.259-4.618,23.138-9.552c4.982-3.573,9.113-7.959,12.403-13.126
				c3.728-5.852,5.817-14.941,11.876-18.532c0.188,2.526,0.73,4.944,1.125,6.094c1.699,4.94,4.993,10.576,9.843,13.039
				C287.222,300.221,279.776,308.906,273.884,318.296z M265.14,338.833c-0.777,5.548,0.051,10.739,2.192,15.665
				c-7.942,4.283-15.552,9.695-22.718,15.02c-6.276,4.665-14.595,10.11-20.276,16.067c-0.2-0.193-0.408-0.404-0.591-0.561
				c-4.684-3.999-10.11-5.638-15.874-6.313c5.921-6.142,17.019-10.553,23.323-14.438
				C242.791,357.127,255.694,349.268,265.14,338.833z M242.718,377.362c8.623-6.676,17.844-12.455,27.085-18.209
				c1.622,2.584,3.579,5.104,5.931,7.554c-1.94,1.839-3.893,3.67-5.877,5.483c-12.269,8.825-24.911,16.918-37.474,24.257
				c-0.428,0.25-0.873,0.497-1.311,0.745c-0.528-2.927-2.323-6.159-4.192-8.675C232.8,386.414,237.94,381.061,242.718,377.362z
				 M269.617,383.626c29.474-21.646,57.627-47.351,75.347-79.721c3.39-3.057,7.268-5.265,11.264-4.179
				c-5.434,9.848-9.744,20.278-15.413,30.003c-7.806,13.391-18.799,23.87-30.523,33.823c-10.53,8.939-21.625,17.174-32.424,25.778
				c-10.324,8.225-19.287,16.832-31.144,22.436c-0.283-0.219-0.565-0.433-0.851-0.626c-5.031-3.4-10.016-3.538-15.06-2.631
				C244.053,400.638,257.129,392.797,269.617,383.626z M398.435,203.671c-0.151,0.233-0.223,0.477-0.309,0.718
				c-4.528-0.196-9.083,0.913-13.427,2.65c10.986-11.188,20.734-23.658,24.919-37.559c2.814,2.655,6.332,4.619,9.927,4.873
				C414.103,185.157,404.065,195.006,398.435,203.671z M422.49,154.157c1.165,4.324,0.995,8.537-0.049,12.632
				c-2.045-0.189-4.086-0.431-5.865-1.403c-2.711-1.482-4.598-4.299-5.916-7.009c-2.519-5.183-3.216-10.766-3.486-16.404
				C413.81,139.986,420.389,146.358,422.49,154.157z M368.156,198.615c10.844-10.924,17.152-21.982,23.59-35.66
				c2.795-5.938,5.716-12.743,10.295-17.589c-0.896,6.236,0.497,13.121,3.177,18.354c0.154,0.3,0.351,0.594,0.524,0.891
				c-10.474,20.002-24.482,36.106-38.799,52.929c-8.251,6.233-15.735,13.504-23.346,20.461
				c-15.407,14.085-29.354,29.297-42.519,45.459c-0.156-0.057-0.299-0.127-0.467-0.172c-4.45-1.171-7.351-5.204-9.237-9.217
				c-0.656-1.4-1.069-2.775-1.395-4.202c5.068-1.569,10.18-2.54,14.99-5.901c5.772-4.033,10.022-9.289,13.74-15.207
				c4.775-7.603,8.292-13.159,15.568-18.788c4.235-3.274,8.053-7.251,11.372-11.588
				C353.596,212.231,361.226,205.598,368.156,198.615z M177.15,318.745c-4.254,0.209-7.748,4.131-6.469,8.493
				c4.865,16.602,8.68,55.098-19.237,47.407c-17.43-4.802-34.848-14.042-50.053-23.633c-12.137-7.655-23.652-16.644-32.95-27.631
				c-6.691-7.909-14.252-15.528-6.05-24.996c6.939-8.008,18.886-9.385,28.769-10.608c10.698-1.324,22.061,1.164,31.681-4.93
				c3.562-2.255,4.913-6.846,2.779-10.595c-3.568-6.262-8.034-12.75-9.52-19.919c-1.623-7.835,3.116-12.903,4.1-20.171
				c1.727-12.755-12.165-19.022-16.494-29.621c-6.954-17.025,2.734-30.124,8.253-45.533c2.956-8.255,3.971-17.838,10.18-24.534
				c4.885-5.269,11.804-7.984,17.886-11.563c10.698-6.295,16.819-17.067,26.597-24.544c11.688-8.938,24.477-11.391,38.889-11.717
				c11.816-0.267,16.258-6.433,23.104-15.282c6.741-8.714,16.541-12.389,26.967-13.335c3.032-0.055,6.111,0.208,9.246,0.893
				c8.049,1.758,15.484,4.675,23.78,5.285c11.859,0.872,19.796,4.947,28.377,13.42c6.558,6.474,12.131,14.154,16.153,22.451
				c4.102,8.466,6.236,17.73,6.125,27.134c-0.12,10.11-4.309,19.703-3.216,29.828c0.961,8.891,5.585,16.976,5.919,25.969
				c0.408,10.985-4.841,21.842-11.447,30.337c-5.606,7.208-13.574,11.433-18.597,19.182c-4.021,6.201-6.759,13.465-12.108,18.724
				c-7.234,7.113-16.897,6.436-25.044,11.47c-5.764,3.561-8.648,9.914-11.871,15.583c-3.837,6.75-7.632,12.699-14.175,17.108
				c-5.126,3.453-11.275,6.049-17.533,6.286c-3.998,0.151-7.702-1.533-11.658-1.034c-6.181,0.779-9.069,4.945-13.262,9.009
				C198.921,314.804,187.203,318.252,177.15,318.745z M221.385,329.185c-6.225,4.743-11.658,10.777-18.223,15.178
				c-4.308,2.888-8.78,5.59-13.494,7.758c-0.231,0.107-0.475,0.205-0.716,0.305c-0.221-7.331-1.426-14.706-3.066-21.146
				c11.646-1.897,21.958-6.853,31.246-14.579C217.109,320.93,218.789,325.37,221.385,329.185z M201.793,370.878
				c-3.788,3.291-6.012,7.755-6.927,12.577c-1.528-0.619-3.035-1.33-4.319-2.563c-2.079-1.997-3.291-4.534-4.714-6.931
				c1.554-3.976,2.471-8.38,2.883-12.968c6.567-0.983,14.287-5.663,18.189-7.946c6.452-3.775,16.616-9.565,21.191-16.942
				c1.06,0.751,2.148,1.404,3.25,1.909c7.699,3.522,15.077,3.008,22.169,0.614c-5.622,4.197-11.363,8.231-17.441,11.945
				C225.144,357.252,211.477,362.467,201.793,370.878z M214.38,407.742c-5.089-7.038-13.816-14.967-9.629-24.561
				c0.098-0.225,0.235-0.439,0.348-0.66c4.795,1.387,9.737,3.86,13.307,7.039c2.095,1.865,3.711,4.117,4.447,6.842
				c0.473,1.753,0.448,3.393,0.97,4.817C220.405,403.165,217.081,405.251,214.38,407.742z M243.704,434.908
				c-14.453,3.58-31.256-7.893-22.882-18.877c5.287,0.261,11.133-1.809,16.167,0.012c8.857,3.202,7.521,11.083,10.236,17.877
				C246.054,434.282,244.88,434.617,243.704,434.908z M255.467,430.822c0.573-4.915-1.492-10.462-4.589-14.697
				c8.591-2.022,16.28-8.454,22.905-13.844c12.259-9.972,25.131-19.146,37.425-29.078c11.996-9.692,23.937-19.949,32.755-32.722
				c7.479-10.834,12.918-23.041,18.533-34.972c2.399,5.344,2.054,12.947,0.779,17.896c-4.624,17.933-19.503,34.055-31.803,47.157
				c-12.395,13.203-25.532,25.87-39.791,37.055C281.055,415.953,268.544,425.104,255.467,430.822z M291.873,448.001
				c-7.449-2.704-10.756-10.415-12.897-18.483c4.329-2.788,8.425-5.656,12.181-8.338c2.454-1.753,4.856-3.574,7.24-5.418
				c3.039,4.682,4.839,9.407,3.298,15.569C300.052,437.905,295.471,442.55,291.873,448.001z M451.027,346.84
				c1.988,4.07-3.264,11.614-5.169,14.709c-16.454,26.746-46.903,46.139-73.786,60.815c-16.568,9.045-33.925,16.17-51.925,21.817
				c-6.272,1.968-13.079,4.327-19.772,4.767c4.311-4.717,7.328-11.112,8.209-17.482c10.598,1.469,21.646-3.434,31.242-7.306
				c13.612-5.491,27.316-11.035,40.294-17.914c27.055-14.342,49.994-37.181,67.6-62.123
				C449.156,344.553,450.322,345.397,451.027,346.84z M427.812,349.777c1.869-1.079,5.749-3.119,9.851-4.524
				c-17.093,20.945-35.317,40.621-59.424,53.829c-21.435,11.744-45.437,22.417-69.399,27.817c-0.148-4.609-1.564-8.983-4.603-12.439
				c30.728,0.844,62.157-24.464,86.4-39.276C403.457,367.352,414.827,357.274,427.812,349.777z M430.815,323.058
				c-15.37,11.79-30.201,24.009-43.869,37.619c3.619-6.528,6.955-13.224,9.783-19.863c1.285-3.018,2.776-6.414,4.083-9.969
				c10.256-6.755,19.594-15.203,29.628-22.184c7.948-5.531,16.698-11.005,23.153-18.388c0.741,4.071,2.588,7.634,5.82,9.953
				C450.013,309.488,438.045,317.512,430.815,323.058z M463.165,296.288c-1.835-6.008-4.478-10.498-3.264-17.425
				c1.132-6.458,4.593-10.95,8.839-15.458c0.135-0.076,0.27-0.152,0.404-0.228C477.387,274.437,472.35,285.981,463.165,296.288z"/>
		</g>
	</g>
</g>
<g>
</g>
<g>
</g>
<g>
</g>
<g>
</g>
<g>
</g>
<g>
</g>
<g>
</g>
<g>
</g>
<g>
</g>
<g>
</g>
<g>
</g>
<g>
</g>
<g>
</g>
<g>
</g>
<g>
</g>
</svg>
