<svg id="Line" viewBox="0 0 64 64" xmlns="http://www.w3.org/2000/svg"><path d="m47 53.25h-12.25v-4.5h4.65c2.43 0 4.46-1.83 4.73-4.25l2.92-27.79c.2-1.9-.41-3.8-1.69-5.22s-3.11-2.24-5.02-2.24h-5.59v-3.25c0-.41-.34-.75-.75-.75h-4c-.41 0-.75.34-.75.75v3.25h-5.59c-1.91 0-3.74.82-5.02 2.24s-1.89 3.32-1.69 5.22l2.03 19.33-13.36 7.71c-.36.21-.48.67-.27 1.02l2 3.47c.1.17.26.3.46.35.06.02.13.03.19.03.13 0 .26-.03.38-.1l8.01-4.63.62 1.08c.14.24.39.38.65.38.13 0 .26-.03.37-.1l1.81-1.04.03.3c.26 2.42 2.29 4.25 4.73 4.25h4.65v4.5h-12.25c-1.52 0-2.75 1.23-2.75 2.75v2c0 .41.34.75.75.75h34c.41 0 .75-.34.75-.75v-2c0-1.52-1.23-2.75-2.75-2.75zm-16.25-46.5h2.5v2.5h-2.5zm-22.47 40.1-1.25-2.17 7.36-4.25 1.25 2.17zm9.66-3.27-2.25-3.9 14.24-8.22c.95 2.38.04 5.17-2.25 6.5zm3.43.77-.1-.96 4.56-2.63h6.18c.41 0 .75-.34.75-.75s-.34-.75-.75-.75h-3.58c1.56-.9 2.68-2.36 3.14-4.1.47-1.74.23-3.56-.67-5.12-.1-.17-.26-.3-.46-.35-.19-.05-.4-.03-.57.08l-9.47 5.47-.99-9.47h3.59c.41 0 .75-.34.75-.75s-.34-.75-.75-.75h-3.75l-.81-7.7c-.16-1.47.32-2.95 1.31-4.06s2.42-1.74 3.9-1.74h16.68c1.49 0 2.91.63 3.9 1.74s1.47 2.58 1.31 4.06l-.28 2.7h-4.27c-.41 0-.75.34-.75.75s.34.75.75.75h4.11l-2.15 20.5h-6.96c-.41 0-.75.34-.75.75s.34.75.75.75h6.8l-.17 1.59c-.18 1.66-1.57 2.91-3.23 2.91h-14.8c-1.66 0-3.05-1.25-3.23-2.91zm9.38 4.41h2.5v4.5h-2.5zm17.5 8.5h-32.5v-1.25c0-.69.56-1.25 1.25-1.25h30c.69 0 1.25.56 1.25 1.25zm-12.25-23h4c.41 0 .75.34.75.75s-.34.75-.75.75h-4c-.41 0-.75-.34-.75-.75s.34-.75.75-.75zm-5-15.5h-8c-.41 0-.75-.34-.75-.75s.34-.75.75-.75h8c.41 0 .75.34.75.75s-.34.75-.75.75zm7 7h-7c-.41 0-.75-.34-.75-.75s.34-.75.75-.75h7c.41 0 .75.34.75.75s-.34.75-.75.75z"/></svg>