<svg id="Capa_1" enable-background="new 0 0 589.848 589.848" height="512" viewBox="0 0 589.848 589.848" width="512" xmlns="http://www.w3.org/2000/svg"><g><g><path d="m535.325 247.86c-10.836-21.377-26.239-38.673-44.172-48.472-17.733-9.694-36.399-11.702-54.009-5.879-7.516 2.493-14.366 6.441-20.569 11.426 13.643-21.215 21.054-45.856 21.054-71.743v-38.055h-38.055c-41.261 0-79.373 18.761-104.536 50.717-24.46-31.176-62.362-50.717-104.765-50.717h-38.055v38.055c0 29.064 9.59 57.187 27 80.229-1.817 2.017-3.577 4.11-5.223 6.336-22.719-25.221-52.183-35.248-79.344-26.248-24.469 8.125-42.46 30.72-50.993 59.613-28.874 14.907-43.658 32.146-43.658 51.316v38.055c0 18.181 13.234 33.878 35.448 47.017l24.317 58.366c11.854 28.446 39.434 46.836 70.258 46.836h329.811c30.824 0 58.395-18.39 70.249-46.836l24.326-58.376c22.205-13.129 35.438-28.826 35.438-47.007v-38.055c.001-14.889-9.636-36.637-54.522-56.578zm-49.319-15.917c17.572 8.848 33.441 31.937 41.413 60.269 2.778 9.866 4.386 19.846 4.985 29.692-.266 7.154-1.085 14.137-2.531 20.854-17.914 8.144-41.232 15.583-69.05 21.663-7.592-10.741-13.785-23.746-17.867-38.245-12.177-43.287-2.664-87.393 20.787-96.307 6.861-2.616 14.348-1.912 22.263 2.074zm-42.868-20.378c6.935-2.302 14.185-2.654 21.472-1.465-2.578.466-5.137 1.027-7.63 1.979-33.374 12.691-47.568 65.074-32.327 119.235 3.815 13.576 9.304 26.134 16.002 37.122-4.871.885-9.885 1.722-14.984 2.521-9.799-12.51-17.381-27.904-21.786-45.142-13.139-51.441 4.471-102.7 39.253-114.25zm-57.682 118.959c4.072 15.964 10.541 30.691 18.866 43.468-14.451 1.817-29.654 3.292-45.523 4.386-12.996-11.626-23.851-30.358-29.997-52.202-12.177-43.287-2.664-87.393 20.787-96.307 11.864-4.509 26.229 1.341 39.092 15.555-9.114 24.679-10.931 54.951-3.225 85.1zm14.118-216.36h19.027v19.027c0 28.008-10.056 54.314-28.322 75.12-14.004-11.302-29.673-17.515-45.38-17.981 12.587-11.15 26.058-21.263 40.538-29.959l-9.79-16.316c-21.254 12.748-40.604 28.199-57.929 45.808-2.845-9.561-6.593-18.685-11.331-27.143 21.426-30.413 55.732-48.556 93.187-48.556zm-70.601 97.401c6.859-2.264 13.995-2.578 21.111-1.465-2.445.466-4.881 1.085-7.268 1.988-33.374 12.691-47.568 65.074-32.327 119.235 5.204 18.504 13.557 35.22 23.794 48.396-4.852.2-9.752.362-14.699.485-13.719-13.481-24.288-32.594-29.854-54.38-13.148-51.45 4.461-102.709 39.243-114.259zm-57.681 118.959c4.785 18.77 12.939 35.895 23.461 50.023-16.944 0-33.317-.466-49.119-1.284-13.452-11.54-24.688-30.644-31.005-53.077-12.178-43.287-2.664-87.393 20.787-96.307 11.864-4.509 26.229 1.341 39.092 15.555-9.105 24.669-10.922 54.941-3.216 85.09zm-100.046-197.333v-19.027h19.027c54.808 0 100.883 38.007 111.719 91.084-3.111 2.531-6.051 5.328-8.791 8.391-21.977-27.847-48.482-51.269-79.002-69.583l-9.79 16.316c15.85 9.514 30.501 20.55 43.972 32.889-13.053-3.977-26.572-4.062-39.558.238-5.404 1.798-10.484 4.31-15.231 7.43-14.44-19.541-22.346-43.259-22.346-67.738zm43.563 78.374c6.859-2.264 13.995-2.578 21.111-1.465-2.445.466-4.881 1.085-7.268 1.988-33.374 12.691-47.568 65.074-32.327 119.235 4.9 17.429 12.549 33.288 21.958 46.084-5.737-.485-11.369-1.018-16.915-1.598-11.826-13.214-20.787-30.33-25.811-49.985-13.14-51.45 4.47-102.709 39.252-114.259zm-54.446 33.859c-9.114 24.678-10.931 54.951-3.225 85.1 3.967 15.536 10.275 29.645 18.209 42.108-21.568-3.025-41.365-6.802-59.061-11.15-6.65-10.17-12.12-22.243-15.802-35.296-12.178-43.287-2.664-87.393 20.787-96.307 11.863-4.519 26.229 1.332 39.092 15.545zm-59.718-33.859c6.859-2.264 13.995-2.578 21.111-1.465-2.445.466-4.881 1.085-7.268 1.988-33.374 12.692-47.569 65.074-32.328 119.245 2.255 7.991 5.099 15.707 8.439 22.966-7.925-2.502-15.279-5.118-21.996-7.839-2.883-6.564-5.366-13.443-7.202-20.635-13.148-51.451 4.462-102.71 39.244-114.26zm-61.734 66.339c-1.665 16.792-.523 34.715 4.053 52.62.352 1.398.856 2.721 1.256 4.1-16.325-9.733-25.192-20.121-25.192-30.187-.001-8.581 6.982-17.723 19.883-26.533zm473.61 162.655c-8.895 21.339-29.578 35.125-52.696 35.125h-329.802c-23.118 0-43.801-13.785-52.696-35.125l-16.031-38.464c57.444 23.309 147.148 35.534 233.627 35.534s176.193-12.225 233.627-35.534zm58.3-98.067c0 36-113.308 76.109-275.897 76.109s-275.897-40.11-275.897-76.109v-2.635c45.085 39.006 163.245 59.717 275.897 59.717s230.811-20.711 275.897-59.717zm-19.751-11.33c1.693-17.21.333-35.134-4.186-52.81-.323-1.265-.771-2.474-1.123-3.72 16.088 9.771 25.059 20.188 25.059 29.806.001 8.876-6.925 18.009-19.75 26.724z"/><circle cx="475.684" cy="266.383" r="9.514"/><circle cx="504.225" cy="294.924" r="9.514"/><circle cx="466.17" cy="304.438" r="9.514"/><circle cx="361.52" cy="266.383" r="9.514"/><circle cx="371.033" cy="342.492" r="9.514"/><circle cx="352.006" cy="304.438" r="9.514"/><circle cx="247.356" cy="266.383" r="9.514"/><circle cx="247.356" cy="342.492" r="9.514"/><circle cx="237.842" cy="304.438" r="9.514"/><circle cx="133.191" cy="266.383" r="9.514"/><circle cx="133.191" cy="342.492" r="9.514"/><circle cx="123.678" cy="304.438" r="9.514"/><circle cx="494.711" cy="332.979" r="9.514"/></g></g></svg>