<svg id="Layer_1" viewBox="0 0 512 512" xmlns="http://www.w3.org/2000/svg" data-name="Layer 1"><path d="m350.716 397.81c2.826 3.396 2.363 8.44-1.033 11.267-4.995 4.155-9.304 11.641-11.529 20.024-.951 3.583-4.188 5.95-7.727 5.95-.68 0-1.37-.087-2.057-.27-4.271-1.133-6.814-5.514-5.681-9.784 3.089-11.643 9.198-21.929 16.76-28.221 3.396-2.826 8.44-2.363 11.267 1.033zm122.671-117.81c-3.307.945-10.604 3.417-11.036 3.522-6.429 2.255-12.647 4.817-18.633 7.662-7.004 4.38-12.767 10.153-17.214 17.301-11.278 18.126-12.405 42.526-10.22 58.222 9.658 1.066 18.991 6.023 26.946 14.479 9.688 10.298 16.259 24.74 18.504 40.666 2.229 15.943-.111 31.645-6.589 44.22-6.953 13.498-17.805 21.913-30.556 23.694-1.677.235-3.351.351-5.016.351-13.562 0-26.554-7.67-36.03-20.915-4.245 6.729-9.307 12.642-15.028 17.423-9.755 8.151-20.525 12.384-31.14 12.384-3.418 0-6.819-.438-10.167-1.327-8.533-2.257-15.929-7.241-21.713-14.473h-206.888c-36.281 0-65.798-29.517-65.798-65.797v-263.421c0-32.977 24.678-61.028 57.404-65.25.138-.019.138-.11.138-.145v-10.623h-15.782c-11.21 0-20.331-9.133-20.331-20.359v-24.264c0-11.226 9.12-20.359 20.331-20.359h278.217c11.21 0 20.331 9.133 20.331 20.359v24.264c0 11.226-9.12 20.359-20.331 20.359h-15.783v10.623c0 .031 0 .126.162.147 32.703 4.219 57.381 32.27 57.381 65.247v137.741c2.641 1.905 5.23 3.941 7.769 6.106 18.945-14.62 41.565-26.044 66.673-33.222 4.25-1.216 8.677 1.245 9.891 5.493 1.214 4.249-1.245 8.677-5.493 9.891zm-192.25 15.877c34.854 21.264 69.767 24.643 106.052 10.278-28.095-21.339-62.337-24.654-106.052-10.278zm97.409-13.801v-47.887h-75.168c-4.418 0-8-3.582-8-8 0-14.173-11.53-25.704-25.703-25.704h-111.996c-14.157 0-25.675 11.531-25.675 25.704 0 4.418-3.582 8-8 8h-75.194v103.507h75.196c4.418 0 8 3.582 8 8 0 14.173 11.518 25.704 25.675 25.704h111.996c14.173 0 25.703-11.531 25.703-25.704 0-4.418 3.582-8 8-8h61.698c2.284-3.492 4.731-6.899 7.319-10.224-9.538 2.197-19.042 3.309-28.5 3.309-28.843 0-57.267-10.209-84.998-30.598-2.343-1.723-3.567-4.581-3.196-7.465s2.277-5.34 4.98-6.415c29.023-11.535 54.168-16.452 76.866-15.035 14.565.91 28.264 4.538 40.998 10.808zm-22.544 71.62h-45.394c-3.734 19.143-20.605 33.642-40.81 33.701 8.786 4.613 14.932 13.313 17.402 24.783 2.458 11.412.951 24.392-4.245 36.551-2.99 7.019-6.989 13.27-11.691 18.478h25.428c-5.355-14.7-5.805-32.234-1.246-49.438 0 0 0 0 0-.001 4.602-17.351 13.802-32.477 25.907-42.592 9.595-8.018 20.172-12.241 30.617-12.386 1.233-3.076 2.578-6.108 4.031-9.096zm-116.971 113.513c2.95.046 5.683-.72 7.767-1.558 8.732-3.509 16.748-12.182 21.441-23.199 3.909-9.148 5.086-18.7 3.32-26.903-1.549-7.192-5.195-12.343-10.265-14.504-5.077-2.172-11.317-1.244-17.581 2.613-7.141 4.398-13.226 11.855-17.134 20.999-7.514 17.638-4.333 36.6 6.945 41.407 1.838.785 3.691 1.113 5.467 1.145zm-156.879-89.888c1.549 7.192 5.195 12.343 10.265 14.504 5.08 2.174 11.319 1.244 17.581-2.613 6.135-3.778 11.487-9.818 15.352-17.241-4.233-5.205-7.245-11.442-8.577-18.275h-32.576c-2.873 8.139-3.601 16.405-2.046 23.625zm-3.036-159.132h37.657c.656-3.366 1.726-6.585 3.141-9.611-.266-5.643-1.64-11.52-4.032-17.115-7.534-17.63-23.431-28.458-34.719-23.649-11.285 4.831-14.472 23.791-6.949 41.399 1.368 3.209 3.014 6.21 4.901 8.977zm260.458-50.267c-11.274-4.805-27.175 6.024-34.707 23.653-1.175 2.752-2.092 5.575-2.77 8.426 4.198 5.187 7.185 11.393 8.511 18.188h31.102c1.854-2.729 3.474-5.688 4.819-8.851 7.508-17.625 4.322-36.589-6.955-41.416zm-265.004-105.948h278.217c2.347 0 4.331-1.996 4.331-4.359v-24.264c0-2.363-1.983-4.359-4.331-4.359h-278.217c-2.348 0-4.331 1.996-4.331 4.359v24.264c0 2.363 1.983 4.359 4.331 4.359zm-25.76 92.018v64.198h11.916c-.423-.888-.836-1.784-1.225-2.696-11.304-26.454-4.549-53.863 15.38-62.393 19.932-8.496 44.401 5.595 55.716 32.075 1.02 2.387 1.884 4.824 2.62 7.281 6.876-5.007 15.328-7.971 24.464-7.971h111.996c6.838 0 13.294 1.66 18.994 4.589.457-1.271.95-2.533 1.484-3.783 11.315-26.482 35.781-40.575 55.707-32.083 19.911 8.523 26.667 35.929 15.392 62.396-.372.874-.765 1.733-1.169 2.584h18.464v-64.198c0-24.957-18.68-46.186-43.451-49.382-8.043-1.061-14.092-7.944-14.092-16.013v-10.623h-214.654v10.623c0 8.069-6.048 14.952-14.068 16.01-24.794 3.199-43.474 24.428-43.474 49.385zm49.798 313.218h1.498c-3.847-4.584-6.298-9.903-7.123-15.705-3.05-21.46 16.893-41.446 45.402-45.5 13.085-1.861 26.005.041 36.38 5.357 11.299 5.79 18.363 14.897 19.891 25.645 1.544 10.733-2.69 21.459-11.924 30.187-.005.005-.011.01-.017.015h29.477c-7.336-12.617-7.957-30.923-.332-48.822 0-.003.002-.005.003-.008 5.196-12.161 13.527-22.227 23.46-28.344 1.633-1.006 3.281-1.874 4.936-2.635h-82.58c-7.168 0-13.915-1.828-19.812-5.031-5.059 8.615-11.785 15.729-19.479 20.468-6.646 4.093-13.534 6.167-20.172 6.167-4.166 0-8.234-.816-12.083-2.464-9.975-4.252-16.948-13.434-19.622-25.849-1.822-8.461-1.46-17.784.964-26.995h-18.667v63.716c0 27.458 22.339 49.797 49.798 49.797zm42.257 0c2.031-.054 4.091-.22 6.166-.516 9.839-1.414 18.615-5.366 24.71-11.127 5.348-5.054 7.86-10.841 7.076-16.294-.777-5.468-4.807-10.318-11.349-13.67-5.527-2.832-12.19-4.298-19.273-4.298-2.478 0-5.006.179-7.557.542-18.974 2.698-33.542 15.249-31.814 27.408.776 5.459 4.808 10.315 11.354 13.673 5.118 2.626 11.208 4.08 17.706 4.284h2.981zm238.092-27.299c7.377-27.815-1.965-55.45-20.4-60.347-.734-.194-1.475-.336-2.218-.454-.124-.016-.249-.031-.373-.052-17.848-2.53-38.017 16.3-45.051 42.813-3.762 14.196-3.435 28.464.92 40.176 3.995 10.742 10.91 17.905 19.471 20.168 8.583 2.28 18.153-.517 26.95-7.869 9.588-8.012 16.939-20.242 20.701-34.436zm30.59-57.238c-6.374.898-12.13 4.98-16.479 11.607 5.463 14.764 5.946 32.419 1.354 49.731-.724 2.734-1.576 5.405-2.521 8.017 7.229 14.76 19.195 23.47 30.472 21.892 7.458-1.042 14.045-6.432 18.549-15.175 4.979-9.665 6.743-21.977 4.968-34.669-3.485-24.724-20.135-43.69-36.343-41.403zm-4.226-66.667c-16.453 14.182-29.277 31.149-37.345 49.927 6.471 2.75 12.134 7.199 16.742 13.101 4.536-4.898 9.848-8.467 15.695-10.523-1.765-13.42-1.777-33.541 4.908-52.506zm-188.799-177.037c-2.576-21.521 17.787-41.066 46.358-44.509 16.252-1.974 31.791 1.769 42.625 10.271 7.481 5.871 11.973 13.46 12.989 21.948 1.028 8.455-1.525 16.883-7.385 24.357-8.499 10.84-22.693 18.18-38.945 20.139-2.806.341-5.603.51-8.364.51-10.15 0-19.842-2.278-27.919-6.64-11.174-6.034-18.05-15.295-19.359-26.077zm15.885-1.915c.664 5.469 4.598 10.415 11.076 13.914 7.386 3.988 16.891 5.523 26.758 4.324 11.897-1.434 22.465-6.714 28.276-14.126 2.22-2.832 4.732-7.31 4.092-12.569-.634-5.292-4.146-9.053-6.982-11.277-6.061-4.756-14.878-7.367-24.397-7.367-2.116 0-4.266.129-6.428.392-.002 0-.005 0-.008 0-19.014 2.292-33.846 14.523-32.387 26.709zm-110.337 12.22c-2.458-11.411-.951-24.392 4.245-36.55 11.309-26.467 35.778-40.546 55.706-32.052 19.919 8.491 26.68 35.898 15.391 62.396-5.199 12.168-13.531 22.234-23.464 28.352-6.646 4.093-13.534 6.167-20.173 6.167-4.166 0-8.234-.816-12.083-2.464-9.975-4.252-16.947-13.434-19.622-25.849zm15.641-3.369c1.549 7.192 5.195 12.343 10.265 14.504 5.079 2.174 11.318 1.244 17.581-2.613 7.143-4.399 13.229-11.859 17.138-21.006 7.51-17.63 4.33-36.592-6.948-41.399-11.293-4.812-27.191 6.006-34.719 23.62-3.905 9.141-5.083 18.692-3.316 26.895z"/></svg>