<svg enable-background="new 0 0 512 512" height="512" viewBox="0 0 512 512" width="512" xmlns="http://www.w3.org/2000/svg"><g id="_x30_7_Pizza"><g><g><path d="m407.124 147.133c-2.083-2.083-5.458-2.083-7.541 0-185.338 185.335-126.265 126.263-138.25 138.248 0-73.81 0-125.844 0-195.501 0-2.945-2.422-5.333-5.366-5.333-118.115 0-213.704 95.533-213.709 213.707v.001.001c0 118.12 95.537 213.707 213.743 213.707 118.121-.022 213.743-95.568 213.743-213.709-.004-57.09-22.243-110.762-62.62-151.121zm-3.817 11.357c34.781 36.596 54.406 83.959 55.703 134.431h-20.377c-1.248-43.562-18.271-86.596-49.798-119.962zm-22.05 257.478-112.384-112.381h159.04c-1.269 41.732-17.314 81.25-46.656 112.381zm-119.924 54.165v-159.005l112.381 112.381c-29.97 28.199-68.889 45.279-112.381 46.624zm-123.057-46.614 112.392-112.392v159.007c-41.925-1.267-81.34-17.388-112.392-46.615zm-54.189-119.932h159.04l-112.393 112.393c-29.043-30.859-45.362-70.128-46.647-112.393zm46.647-123.058 112.393 112.393h-159.04c1.293-42.515 17.722-81.664 46.647-112.393zm119.933-54.152v159.004l-112.391-112.392c30.345-28.544 69.398-45.312 112.391-46.612zm130.589 54.164c29.234 31.035 45.379 70.364 46.657 112.38h-159.04zm-130.589-85.26v20.377c-43.406 1.236-86.315 17.982-119.97 49.751l-14.477-14.475c36.589-34.755 83.949-54.362 134.447-55.653zm-141.99 63.194 14.477 14.475c-30.725 32.52-48.497 75.175-49.787 119.972h-20.377c1.294-50.483 20.916-97.853 55.687-134.447zm-35.31 145.112c1.271 44.138 18.457 86.83 49.787 119.973l-14.477 14.474c-34.774-36.591-54.396-83.965-55.687-134.447zm57.331 127.513c31.827 30.055 74.255 48.447 119.97 49.753v20.377c-50.48-1.284-97.853-20.893-134.447-55.656zm130.635 70.128v-20.377c44.653-1.293 87.325-18.948 119.959-49.761l14.472 14.469c-36.602 34.758-83.962 54.37-134.431 55.669zm141.974-63.21-14.472-14.469c30.275-32.023 48.493-74.47 49.798-119.962h20.377c-1.294 50.469-20.919 97.835-55.703 134.431z"/><path d="m289.792 217.513c36.543-36.543 110.981-110.981 147.354-147.354 2.079-2.079 2.086-5.455 0-7.541-40.367-40.345-94.036-62.571-151.124-62.582-2.942 0-5.333 2.389-5.333 5.333v208.374c0 4.78 5.774 7.099 9.103 3.77zm1.562-175.646c43.231 1.337 82.223 18.25 112.38 46.623l-112.38 112.38zm0-31.095c50.469 1.299 97.832 20.911 134.431 55.667l-14.471 14.471c-31.869-30.083-74.363-48.441-119.959-49.761v-20.377z"/><path d="m195.977 166.823c3.608 0 3.642 5.473 0 5.473-2.945 0-5.333 2.388-5.333 5.333s2.388 5.333 5.333 5.333c7.39 0 13.402-6.012 13.402-13.402s-6.012-13.402-13.402-13.402c-2.945 0-5.333 2.388-5.333 5.333.001 2.944 2.388 5.332 5.333 5.332z"/><path d="m213.821 227.153c2.843.763 5.773-.898 6.551-3.739.928-3.396 6.25-2.113 5.278 1.44-.776 2.841.898 5.773 3.739 6.549 2.832.782 5.774-.896 6.549-3.736 1.957-7.146-2.219-14.499-9.395-16.459-7.094-1.939-14.492 2.205-16.461 9.395-.776 2.839.898 5.771 3.739 6.55z"/><path d="m226.041 194.727c2.945 0 5.333-2.388 5.333-5.333v-7.069c0-2.945-2.388-5.333-5.333-5.333s-5.333 2.388-5.333 5.333v7.069c0 2.946 2.388 5.333 5.333 5.333z"/><path d="m112.916 258.953c2.435 1.672 5.747 1.055 7.416-1.37 2.039-2.968 6.577.097 4.51 3.101-1.666 2.427-1.052 5.747 1.375 7.416 2.44 1.67 5.753 1.045 7.416-1.375 4.184-6.09 2.635-14.451-3.45-18.633-6.082-4.189-14.446-2.64-18.635 3.445-1.67 2.427-1.059 5.747 1.368 7.416z"/><path d="m180.154 277.06c2.25-1.901 2.531-5.265.63-7.515-2.332-2.762 1.838-6.309 4.179-3.533 1.903 2.247 5.267 2.531 7.515.63 2.25-1.901 2.531-5.265.63-7.515-4.863-5.755-13.313-6.293-18.885-1.583-5.642 4.77-6.353 13.243-1.583 18.885 1.907 2.256 5.274 2.527 7.514.631z"/><path d="m152.942 249.993c2.432 1.672 5.749 1.052 7.416-1.37 1.669-2.427 1.057-5.747-1.37-7.416l-5.822-4.005c-2.424-1.669-5.744-1.055-7.416 1.37-1.669 2.427-1.057 5.747 1.37 7.416z"/><path d="m130.398 368.958c2.903-.49 4.861-3.239 4.374-6.145-.591-3.506 4.777-4.555 5.398-.906.487 2.903 3.224 4.861 6.145 4.369 2.903-.49 4.861-3.242 4.369-6.145-1.226-7.285-8.163-12.204-15.435-10.988-7.271 1.22-12.227 8.103-10.996 15.441.489 2.894 3.226 4.856 6.145 4.374z"/><path d="m186.002 340.006c2.705 0 5.025-2.049 5.301-4.799.294-2.929-1.843-5.546-4.773-5.84-3.613-.363-3.008-5.841.544-5.445 2.934.292 5.546-1.846 5.838-4.775.292-2.932-1.846-5.543-4.775-5.838-7.444-.735-13.937 4.664-14.67 11.996-.812 8.11 5.869 14.701 12.535 14.701z"/><path d="m145.958 335.853 6.968-1.172c2.903-.49 4.861-3.239 4.374-6.145-.492-2.901-3.218-4.869-6.145-4.374l-6.968 1.172c-2.903.49-4.861 3.239-4.374 6.145.49 2.895 3.226 4.857 6.145 4.374z"/><path d="m228.728 420.563c-6.236-3.958-14.537-2.112-18.5 4.124-3.96 6.233-2.112 14.532 4.124 18.497 2.483 1.58 5.783.847 7.361-1.638 1.581-2.487.846-5.78-1.638-7.361-3.051-1.943-.139-6.569 2.934-4.619 2.484 1.578 5.783.841 7.361-1.643 1.579-2.486.844-5.78-1.642-7.36z"/><path d="m237.37 373.697c-1.979-2.177-5.353-2.341-7.533-.357-2.702 2.457-6.339-1.629-3.682-4.046 2.179-1.981 2.341-5.353.362-7.533-1.987-2.179-5.353-2.341-7.533-.362-5.491 4.991-5.901 13.431-.901 18.932 4.972 5.467 13.462 5.871 18.93.898 2.18-1.981 2.338-5.353.357-7.532z"/><path d="m209.665 394.506c-2.492-1.573-5.783-.841-7.361 1.643l-3.789 5.965c-1.578 2.487-.844 5.78 1.643 7.361 2.511 1.591 5.797.82 7.361-1.643l3.789-5.965c1.578-2.486.844-5.78-1.643-7.361z"/><path d="m323.444 419.25c-3.57.683-4.575-4.674-1.062-5.369 2.89-.573 4.768-3.38 4.195-6.267-.573-2.888-3.395-4.778-6.267-4.195-7.249 1.437-11.977 8.501-10.54 15.748 1.431 7.237 8.466 11.993 15.748 10.545 2.89-.573 4.768-3.38 4.195-6.267-.575-2.89-3.392-4.786-6.269-4.195z"/><path d="m294.219 363.537c-2.885-.193-5.489 2.002-5.697 4.942-.254 3.554-5.72 3.281-5.458-.391.208-2.937-2.002-5.489-4.942-5.697-2.89-.172-5.489 2.005-5.697 4.942-.528 7.398 5.01 13.79 12.415 14.318 7.343.529 13.792-4.995 14.321-12.417.208-2.937-2.003-5.489-4.942-5.697z"/><path d="m288.534 397.717c-2.888.573-4.768 3.377-4.195 6.267l1.372 6.934c.58 2.932 3.431 4.762 6.267 4.195 2.888-.573 4.768-3.377 4.195-6.267l-1.372-6.934c-.572-2.891-3.376-4.773-6.267-4.195z"/><path d="m395.097 339.152c-2.304-1.83-5.658-1.443-7.491.862-2.18 2.744-6.579-.509-4.286-3.401 1.833-2.304 1.45-5.661-.857-7.491-2.304-1.838-5.661-1.453-7.491.857-4.616 5.805-3.661 14.212 2.159 18.828 5.786 4.59 14.216 3.65 18.828-2.164 1.831-2.307 1.445-5.66-.862-7.491z"/><path d="m329.266 316.478c-2.375 1.742-2.888 5.077-1.146 7.452 2.139 2.918-2.269 6.169-4.411 3.242-1.742-2.377-5.08-2.893-7.452-1.146-2.375 1.742-2.888 5.077-1.146 7.452 4.377 5.967 12.784 7.241 18.732 2.877 5.955-4.372 7.246-12.777 2.875-18.732-1.74-2.374-5.083-2.892-7.452-1.145z"/><path d="m354.551 345.347c-2.302-1.83-5.658-1.45-7.491.862-1.83 2.304-1.445 5.661.862 7.491l5.536 4.395c2.308 1.835 5.667 1.441 7.491-.862 1.83-2.304 1.445-5.661-.862-7.491z"/><path d="m389.715 232.363c-2.937.206-5.153 2.755-4.947 5.692.248 3.601-5.203 3.979-5.458.383-.203-2.94-2.807-5.119-5.689-4.95-2.937.203-5.153 2.75-4.95 5.689.517 7.477 6.999 12.97 14.3 12.436 7.383-.513 12.952-6.914 12.436-14.303-.208-2.937-2.718-5.166-5.692-4.947z"/><path d="m332.101 255.872c-2.89-.583-5.697 1.297-6.27 4.187-.578 2.888 1.297 5.694 4.187 6.27 3.462.7 2.535 6.075-1.073 5.369-2.914-.575-5.7 1.297-6.273 4.187-.578 2.888 1.297 5.694 4.184 6.27 7.198 1.444 14.312-3.236 15.763-10.517 1.451-7.243-3.234-14.316-10.518-15.766z"/><path d="m371.023 263.804-7.048.492c-2.937.206-5.153 2.752-4.947 5.692.197 2.833 2.62 5.135 5.692 4.947l7.048-.492c2.937-.206 5.153-2.752 4.947-5.692-.206-2.937-2.758-5.122-5.692-4.947z"/><path d="m339.361 71.779c-2.112-2.054-5.484-2.01-7.543.096-2.054 2.109-2.01 5.486.096 7.543 2.583 2.514-1.207 6.455-3.82 3.916-2.109-2.054-5.486-2.01-7.541.099-2.054 2.109-2.01 5.486.099 7.541 5.278 5.14 13.777 5.062 18.95-.245 5.156-5.291 5.049-13.792-.241-18.95z"/><path d="m304.483 127.776c-2.539 1.492-3.388 4.76-1.893 7.298 1.495 2.539 4.768 3.39 7.298 1.893 3.01-1.772 5.962 2.848 2.776 4.715-2.541 1.492-3.39 4.76-1.898 7.298 1.501 2.554 4.777 3.38 7.298 1.898 6.377-3.747 8.54-11.918 4.765-18.344-3.751-6.377-11.961-8.513-18.346-4.758z"/><path d="m346.344 107.683c-2.109-2.057-5.489-2.01-7.541.099l-4.932 5.062c-2.054 2.109-2.01 5.486.099 7.541 2.105 2.052 5.484 2.014 7.541-.099l4.932-5.062c2.054-2.11 2.01-5.487-.099-7.541z"/></g></g></g></svg>