<svg height="512" viewBox="0 0 48 48" width="512" xmlns="http://www.w3.org/2000/svg"><g id="_03-jerk_chicken_jamaica" data-name="03-jerk chicken, jamaica"><path d="m4.949 25.506h7.089v2h-7.089z" transform="matrix(.707 -.707 .707 .707 -16.255 13.769)"/><path d="m27.583 4.994h2.847v2h-2.847z" transform="matrix(.707 -.707 .707 .707 4.258 22.266)"/><path d="m31.323 8.365h4.626v2h-4.626z" transform="matrix(.707 -.707 .707 .707 3.23 26.527)"/><path d="m8.052 31.635h4.625v2h-4.625z" transform="matrix(.707 -.707 .707 .707 -20.041 16.888)"/><path d="m4.029 18.473h6.996v2h-6.996z" transform="matrix(.707 -.707 .707 .707 -11.565 11.026)"/><path d="m35.323 12.365h4.626v2h-4.626z" transform="matrix(.707 -.707 .707 .707 1.573 30.527)"/><path d="m12.052 35.635h4.625v2h-4.625z" transform="matrix(.707 -.707 .707 .707 -21.698 20.888)"/><path d="m36.975 25.527h6.996v2h-6.996z" transform="matrix(.707 -.707 .707 .707 -6.903 36.388)"/><path d="m17.363 38.506h4.261v2h-4.261z" transform="matrix(.707 -.707 .707 .707 -22.226 25.355)"/><path d="m39.583 16.994h2.847v2h-2.847z" transform="matrix(.707 -.707 .707 .707 -.713 34.266)"/><path d="m24 47a24 24 0 1 1 24-24 24.028 24.028 0 0 1 -24 24zm0-46a22 22 0 1 0 22 22 22.025 22.025 0 0 0 -22-22z"/><path d="m38.375 46.17a2.99 2.99 0 0 1 -2.121-.877l-1.461-1.461 1.414-1.414 1.461 1.461a1 1 0 0 0 1.414 0l5.8-5.8a1 1 0 0 0 0-1.414l-1.461-1.461 1.414-1.414 1.461 1.461a3 3 0 0 1 0 4.242l-5.8 5.8a2.99 2.99 0 0 1 -2.121.877z"/><path d="m3.168 12.207-1.461-1.461a3 3 0 0 1 0-4.242l5.793-5.797a3 3 0 0 1 4.242 0l1.461 1.461-1.41 1.414-1.461-1.461a1 1 0 0 0 -1.414 0l-5.8 5.8a1 1 0 0 0 0 1.414l1.461 1.461z"/><path d="m24 43a20 20 0 1 1 20-20 20.023 20.023 0 0 1 -20 20zm0-38a18 18 0 1 0 18 18 18.021 18.021 0 0 0 -18-18z"/><path d="m20 33a2.987 2.987 0 0 1 -2-.766 3 3 0 1 1 -3-5.063v-3.171h2v4a1 1 0 0 1 -1 1 1 1 0 1 0 1 1 1 1 0 0 1 2 0 1 1 0 1 0 1-1 1 1 0 0 1 -1-1v-4h2v3.171a3 3 0 0 1 -1 5.829z"/><path d="m18 26c-4.044 0-7-7.234-7-11 0-3.447 2.353-7.479 5.856-7.99a1 1 0 0 1 .144-.01h3c7.831 0 9 3.759 9 6 0 2.445-2.574 5.289-5.077 5.886l-.111 1.206a1.024 1.024 0 0 1 -.073.293c-.704 1.688-2.673 5.615-5.739 5.615zm-.922-17c-2.339.394-4.078 3.472-4.078 6 0 3.147 2.57 9 5 9 1.232 0 2.729-1.662 3.834-4.246l.166-1.846a1 1 0 0 1 1-.908c1.645 0 4-2.355 4-4 0-2.654-2.355-4-7-4z"/><path d="m24 18h-2c0-1.383-.617-2-2-2v-2a3.675 3.675 0 0 1 4 4z"/><path d="m28.994 32a3.643 3.643 0 0 1 -1.543-.324 4.448 4.448 0 0 1 -2.228-2.691 15.258 15.258 0 0 1 .542-10.014 6.979 6.979 0 0 1 9.221-3.326 6.857 6.857 0 0 1 3.6 3.9 6.785 6.785 0 0 1 -.24 5.247c-1.367 2.908-5.825 7.208-9.352 7.208zm-1.42-12.176a13.364 13.364 0 0 0 -.474 8.476 2.569 2.569 0 0 0 1.187 1.559c2.177 1 6.932-3.123 8.248-5.917a4.8 4.8 0 0 0 .171-3.711 4.872 4.872 0 0 0 -2.56-2.771 4.972 4.972 0 0 0 -6.574 2.363z"/><path d="m27.566 39a2.981 2.981 0 0 1 -2.729-1.783 3 3 0 0 1 -2.112-.149 2.954 2.954 0 0 1 -1.444-3.94 2.993 2.993 0 0 1 2.984-1.692l1.323-2.81 1.81.852-1.674 3.554a1 1 0 0 1 -1.325.482.987.987 0 0 0 -1.308.466.936.936 0 0 0 -.034.725.964.964 0 0 0 .506.547.991.991 0 0 0 1.309-.467 1 1 0 0 1 1.905.427 1.011 1.011 0 0 1 -.1.426.934.934 0 0 0 -.034.724.961.961 0 0 0 .506.547.992.992 0 0 0 1.309-.467.938.938 0 0 0 .034-.724.966.966 0 0 0 -.507-.547 1 1 0 0 1 -.486-1.334l1.675-3.554 1.809.852-1.319 2.8a2.954 2.954 0 0 1 .6 3.361 2.989 2.989 0 0 1 -2.698 1.704z"/><path d="m34 21h2v2h-2z"/><path d="m32 24h2v2h-2z"/><path d="m19 18h2v2h-2z"/></g></svg>