<svg id="Layer_1" enable-background="new 0 0 450 450" height="512" viewBox="0 0 450 450" width="512" xmlns="http://www.w3.org/2000/svg"><path d="m300.7 420.8c-.2 0-.5 0-.7 0h-150.6c-.2 0-.4 0-.7 0-37.3-5-67.6-27.8-87.6-66-15.8-30-24.8-69.4-24.8-107.9 0-2.8 2.2-5 5-5h367.9c2.8 0 5 2.2 5 5 0 38.6-9.1 78-24.9 108.2-20.2 38.4-50.6 61.1-87.9 65.9-.2-.2-.5-.2-.7-.2zm-151-10h151c42.5-5.6 66.8-36 79.6-60.5 14.4-27.5 23-63.1 23.7-98.5h-357.6c.7 35.4 9.3 70.9 23.6 98.3 12.8 24.5 37.1 54.8 79.7 60.7z"/><path d="m315.4 446.7h-180.7c-1.8 0-3.4-.9-4.3-2.5s-.9-3.4 0-5l14.7-25.9c1.4-2.4 4.4-3.3 6.8-1.9s3.3 4.4 1.9 6.8l-10.4 18.5h163.6l-10.4-18.5c-1.4-2.4-.5-5.5 1.9-6.8 2.4-1.4 5.5-.5 6.8 1.9l14.7 25.9c.9 1.5.9 3.4 0 5s-2.8 2.5-4.6 2.5z"/><path d="m200.1 251.8h-132.7c-16.4 0-29.7-13.3-29.7-29.7s13.3-29.7 29.7-29.7c4.7 0 9.3 1.1 13.4 3.2 5.4-8.4 14.8-13.7 25-13.7 11.9 0 22.6 7.2 27.2 17.9 3.7.1 7.2.8 10.5 2.2 3.9-11.9 15.1-20.4 28.2-20.4 9.1 0 17.8 4.3 23.4 11.4 1.6-.3 3.2-.4 4.8-.4 16.4 0 29.7 13.3 29.7 29.7.2 16.2-13.2 29.5-29.5 29.5zm-132.7-49.4c-10.9 0-19.7 8.8-19.7 19.7s8.8 19.7 19.7 19.7h132.6c10.9 0 19.7-8.8 19.7-19.7s-8.8-19.7-19.7-19.7c-1.9 0-3.8.3-5.6.8-2.2.6-4.5-.3-5.7-2.2-3.6-6-9.9-9.6-16.9-9.6-10.4 0-19 8.1-19.7 18.5-.1 1.8-1.2 3.5-2.9 4.2-1.7.8-3.6.6-5.1-.5-4-3-9-4.4-14-3.8-2.4.3-4.7-1.3-5.4-3.6-2.4-8.5-10.2-14.4-19-14.4-8.1 0-15.5 5.1-18.4 12.7-.6 1.5-1.8 2.6-3.3 3s-3.2.1-4.4-.9c-3.5-2.8-7.7-4.2-12.2-4.2z"/><path d="m354.5 251.8h-132.7c-2.8 0-5-2.2-5-5s2.2-5 5-5h132.6c10.9 0 19.7-8.8 19.7-19.7s-8.8-19.7-19.7-19.7c-1.9 0-3.8.3-5.6.8-2.2.6-4.5-.3-5.7-2.2-3.6-6-9.9-9.6-16.9-9.6-10.4 0-19 8.1-19.7 18.5-.1 1.8-1.2 3.5-2.9 4.2-1.7.8-3.6.6-5.1-.5-4-3-9-4.4-14-3.8-2.4.3-4.7-1.3-5.4-3.6-2.4-8.5-10.2-14.4-19-14.4-8.1 0-15.5 5.1-18.4 12.7-.6 1.5-1.8 2.6-3.3 3s-3.2.1-4.4-.9c-3.5-2.8-7.7-4.2-12.2-4.2-3 0-6 .7-8.7 2-2.5 1.2-5.5.2-6.7-2.3s-.2-5.5 2.3-6.7c4.1-2 8.5-3 13.1-3s9.2 1.1 13.3 3.2c5.4-8.4 14.8-13.8 25.1-13.8 11.9 0 22.6 7.2 27.2 17.9 3.7.1 7.2.8 10.5 2.2 3.9-11.9 15.1-20.4 28.2-20.4 9.1 0 17.8 4.3 23.4 11.4 1.6-.3 3.2-.4 4.8-.4 16.4 0 29.7 13.3 29.7 29.7.2 16.3-13.2 29.6-29.5 29.6z"/><path d="m282.9 206.7c-1.6 0-3.2-.8-4.1-2.2-1.6-2.3-1-5.4 1.3-6.9 6.8-4.6 11.5-15.9 11.5-23.1 0-9.3-7.5-16.8-16.8-16.8-1.6 0-3.2.2-4.8.7-2.2.6-4.5-.3-5.7-2.2-3.1-5.1-8.5-8.2-14.4-8.2-8.9 0-16.2 6.9-16.8 15.8-.1 1.8-1.2 3.5-2.9 4.2-1.7.8-3.6.6-5.1-.5-3.4-2.6-7.6-3.7-12-3.2-2.4.3-4.7-1.3-5.4-3.6-2-7.2-8.7-12.3-16.2-12.3-6.9 0-13.3 4.4-15.7 10.8-.6 1.5-1.8 2.6-3.3 3s-3.2.1-4.4-.9c-3-2.4-6.6-3.6-10.4-3.6-9.3 0-16.8 7.5-16.8 16.8 0 7.2 4.5 18.1 11.2 22.9 2.2 1.6 2.8 4.7 1.1 7s-4.7 2.8-7 1.1c-9.6-6.9-15.4-21.2-15.4-31 0-14.8 12-26.8 26.8-26.8 4 0 8 .9 11.6 2.6 4.9-7.3 13.3-12 22.3-12 10.6 0 20.2 6.3 24.4 15.8 3 .1 5.8.7 8.6 1.7 3.7-10.5 13.7-17.9 25.3-17.9 8.1 0 15.9 3.8 20.9 10 1.3-.2 2.7-.3 4-.3 14.8 0 26.8 12 26.8 26.8 0 10.1-6 24.6-15.9 31.4-.8.6-1.7.9-2.7.9z"/><path d="m283.4 208c-1.8 0-3.5-.9-4.4-2.6-1.3-2.4-.4-5.5 2-6.8l117.8-64.2c2.2-1.2 3.8-3.1 4.4-5.2.2-.7.4-2.1-.2-3.4l-7.4-12.8c-.7-1.2-2-1.7-2.8-1.9-2.1-.5-4.6-.1-6.7 1.2l-90 55c-2.4 1.4-5.4.7-6.9-1.7-1.4-2.4-.7-5.4 1.7-6.9l90-55c4.4-2.7 9.6-3.6 14.3-2.4 3.9 1 7.1 3.3 9 6.6l7.4 12.8c1.9 3.3 2.3 7.2 1.2 11.1-1.3 4.7-4.7 8.8-9.2 11.2l-117.8 64.2c-.8.6-1.6.8-2.4.8z"/><path d="m203.7 152c-1.2 0-2.5-.5-3.4-1.4-2-1.9-2.1-5.1-.2-7.1l126.4-132.8c3.6-3.7 8.4-5.9 13.2-6h.2c4 0 7.6 1.4 10.2 4l10.4 10.4c2.7 2.7 4.1 6.3 4 10.4-.1 4.8-2.2 9.7-6 13.2l-109.2 104.2c-2 1.9-5.2 1.8-7.1-.2s-1.8-5.2.2-7.1l109.3-104c1.8-1.7 2.9-4 2.9-6.1 0-.8-.1-2.2-1.1-3.2l-10.4-10.4c-1-1-2.4-1.1-3.2-1.1-2.1 0-4.4 1.1-6.1 2.9l-126.4 132.7c-1 1.1-2.3 1.6-3.7 1.6z"/><path d="m406.6 287.3h-362.7c-2.8 0-5-2.2-5-5s2.2-5 5-5h362.7c2.8 0 5 2.2 5 5s-2.2 5-5 5z"/></svg>