<svg id="Taco" enable-background="new 0 0 64 64" viewBox="0 0 64 64" xmlns="http://www.w3.org/2000/svg"><path d="m62.23708 33.25864-.25998-.17003c-.85991-.55994-1.65981-1.08986-2.0598-1.68984-.37997-.56995-.5799-1.37987-.74993-2.24978.11998-.52992.17997-1.07985.17997-1.6398 0-4.22963-3.43967-7.67931-7.67925-7.67931-2.60259 0-4.9037 1.31109-6.28852 3.30834-1.77064-.82341-3.69044-1.46391-5.75439-1.9115.02887-.27262.05407-.54658.05407-.82689 0-.44966-.04681-.88779-.12157-1.3164.72753-.02814 1.46012-.1469 2.18137-.27341 1.2099-.21 2.35976-.40999 3.13971-.05999.21995.08996.43996.24998.65991.45992.49001.48 1.2699.46999 1.73988-.02996.46992-.47993.45992-1.25989-.03003-1.73982-.42995-.42-.88993-.72997-1.37987-.94992-1.46983-.63995-3.1197-.35995-4.55956-.09997-.99203.1768-1.93304.33072-2.65807.19407-1.32853-2.29935-3.81115-3.85376-6.65102-3.85376s-5.32248 1.55442-6.65103 3.85375c-.72503.13664-1.66604-.01727-2.65807-.19407-1.44987-.25998-3.08973-.53999-4.55956.09997-1.41985.62994-2.27981 1.93982-3.09968 3.20971-.11486.17686-.22837.34396-.34213.51429-.74724-.24296-1.53983-.38436-2.36763-.38436-4.22957 0-7.66924 3.44968-7.66924 7.67931 0 .54993.05999 1.09987.17998 1.6398-.17998.87992-.36996 1.67983-.75994 2.25979-.39999.58997-1.1999 1.11989-2.0598 1.67983l-.24998.17003c-1.0599.68994-1.70986 1.85981-1.75984 3.10969-.04998 1.27984.50996 2.44978 1.50986 3.22967l3.38773 2.61816c-.32175 1.76033-.53626 3.61238-.62714 5.56324-.04205.9086.2836 1.77388.91697 2.43727.63812.66821 1.53586 1.05275 2.46125 1.05275h48.6941c.92533 0 1.82191-.38454 2.46125-1.05275.63452-.66339.96139-1.52866.91813-2.43727-.09093-1.95049-.30552-3.80212-.62726-5.56221l3.38908-2.61919c.9999-.77989 1.55984-1.94983 1.50986-3.22967-.04998-1.24989-.70995-2.41976-1.75983-3.10969zm-10.56899-10.96898c2.87973 0 5.21953 2.3398 5.21953 5.21953 0 1.59561-.7293 3.02308-1.86432 3.98167-1.93127-2.97945-4.43085-5.38669-7.44374-7.18815.95309-1.21924 2.42426-2.01305 4.08853-2.01305zm-19.66931-1.84009c-1.80934 0-3.53591.12242-5.18663.35-.01031-.13341-.03161-.26365-.03161-.39974 0-2.86972 2.33974-5.20946 5.21947-5.20946 2.86972 0 5.21947 2.33974 5.21947 5.20946 0 .13616-.02172.26639-.03222.39993-1.65128-.22777-3.37848-.35019-5.18848-.35019zm-14.89737.59021c.64996-1.00991 1.2699-1.96978 2.01982-2.28976.7899-.35 1.93982-.15001 3.14972.05999.71044.12688 1.44102.24589 2.17136.2736-.07476.42855-.12157.86662-.12157 1.31622 0 .28012.02521.55402.05401.82646-2.06419.44747-3.98393 1.08791-5.75482 1.91132-.47609-.6864-1.06612-1.28186-1.73518-1.77998.07025-.10669.14684-.2119.21666-.31785zm-14.0786 16.60839c-.36996-.27994-.57996-.7199-.55994-1.17988.01996-.47993.25992-.88993.6499-1.14985l.24998-.17003c1.02993-.66992 2.08983-1.35985 2.75974-2.37977.21-.30997.37997-.63989.51997-.97989.18998 0 .38998-.04998.5799-.14995.59998-.31998.82994-1.0699.50996-1.66988-.40993-.75994-.61994-1.58981-.61994-2.45972 0-2.87973 2.3398-5.21953 5.20952-5.21953 1.66415 0 3.14154.79369 4.09714 2.01274-5.38333 3.21868-9.11143 8.38939-10.92686 15.25555zm54.00566 10.86675c-.1779.18748-.42544.29324-.68261.29324h-48.6941c-.25596 0-.50477-.10576-.68139-.29086-.09496-.10094-.25242-.31485-.23795-.6225.43386-9.3307 4.29518-24.98398 25.26636-24.98398 20.9724 0 24.83257 15.65328 25.27003 24.98154.01202.31009-.14422.524-.24034.62256zm3.94872-10.86675-2.47071 1.91083c-.56531-2.13816-1.31182-4.11581-2.24051-5.91746.49983-.37283.95798-.79845 1.35155-1.28284.08001.14.16002.28.24997.40993.67993 1.00991 1.73982 1.69985 2.74974 2.36983l.26999.17997c.38998.25993.62994.67993.6499 1.14985.01002.45998-.18997.89995-.55993 1.17989zm-9.69572-2.99227c.35092.58167.16106 1.3388-.42299 1.68727-.19712.12023-.41586.17546-.63214.17546-.41586 0-.82445-.21391-1.0552-.59845-1.47337-2.45527-3.48996-4.37574-5.98972-5.7049-.60089-.31851-.8292-1.06362-.50953-1.66451.31729-.60089 1.06716-.82798 1.66329-.50831 2.90352 1.54191 5.23979 3.76637 6.94629 6.61344z"/></svg>