<svg id="Layer_1" enable-background="new 0 0 514.306 514.306" height="512" viewBox="0 0 514.306 514.306" width="512" xmlns="http://www.w3.org/2000/svg"><path d="m505.692 41.02c9.758-.248 10.049-14.657 0-15h-417.92c-3.038 0-5.509-2.472-5.509-5.51s2.472-5.509 5.509-5.509h417.92c4.143 0 7.5-3.358 7.5-7.5s-3.357-7.5-7.5-7.5h-417.92c-17.1-.174-26.852 20.502-15.844 33.519-10.965 13.018-1.333 33.668 15.844 33.519h47.326v93.848c-6.24 2.246-12.316 4.672-18.173 7.256-7.119-10.549-20.648-4.085-26.953 3.375-1.61 1.904-3.224 4.157-4.832 6.743-5.908-7.614-11.569-11.652-17.404-12.512-4.833-.71-9.12.931-11.77 4.503-4.492 6.059-3.642 16.458 2.843 34.774.05.14.1.281.149.421-22.507 21.445-34.369 46.17-34.369 71.778 0 12.895 1.691 55.083 21.445 101.995l-27.753-11.126c-3.844-1.541-8.206.323-9.75 4.164-21.476 50.413 5.553 113.046 56.808 132.361 30.405 12.189 65.597 8.833 93.193-8.788 63.955 27.861 161.575 24.185 220.188-10.852 8.152-4.652 1.086-17.893-7.436-13.027-52.337 31.38-140.022 35.738-198.882 13.248 10.889-9.943 19.762-22.406 25.613-36.959 1.308-4.405-.081-7.658-4.167-9.759l-127.605-51.16c-8.742-17.571-14.635-34.814-18.6-50.355 87.63 103.584 332.063 103.551 419.486-.472-9.832 39.385-29.865 81.677-64.3 112.667-7.035 6.333 2.967 17.51 10.035 11.149 27.126-24.412 47.724-56.277 61.223-94.708 9.982-28.422 15.708-60.635 15.708-88.378 0-28.721-14.666-55.942-42.481-78.983 3.448-13.405 4.335-27.487 2.621-41.22 1.404-3.57 4.495-11.707 7.123-20.555 5.541-18.651 5.856-29.09 1.057-34.905-2.83-3.429-7.196-4.843-11.979-3.881-5.767 1.16-11.198 5.474-16.693 13.359-5.595-8.01-13.854-16.287-23.828-14.276-4.148.834-7.396 3.397-9.143 7.215-1.919 4.192-3.441 12.173 5.459 32.993 2.94 6.879 6.124 13.093 7.989 16.596-2.099 5.721-5.295 11.322-9.132 16.071-46.228-21.491-109.083-31.751-166.263-28.231v-74.369h271.167c4.143 0 7.5-3.358 7.5-7.5s-3.357-7.5-7.5-7.5h-271.167v-11.019zm-375.321 423.62-14.527-41.272 40.771 16.345c-6.131 11.063-15.41 19.597-26.244 24.927zm-28.903 6.274c-19.369-.595-37.722-10.654-48.634-26.722l46.204-23.392 17.166 48.769c-4.801 1.036-9.748 1.499-14.736 1.345zm-43.511-70.753c.052.021.103.042.155.062l26.989 10.82-39.1 19.796c-4.278-11.698-4.84-24.214-1.668-36.14zm12.965 90.535c-21.652-8.68-38.608-25.244-47.746-46.641-8.093-18.95-9.18-39.683-3.226-59.131l10.376 4.16c-10.661 36.467 8.676 76.245 43.522 90.891 35.856 15.018 78.712-.034 96.776-34.645l10.376 4.159c-20.091 39.685-67.87 58.129-110.078 41.207zm92.318-449.676v48.804c.307 9.916 14.696 9.909 15 0v-48.804h13.142v207.043c-.423.189-.846.385-1.266.588-4.111 1.988-8.07 3.527-11.876 4.675v-124.325c-.307-9.916-14.696-9.909-15 0v127.002c-4.678.237-9.06-.121-13.142-.922v-214.061zm102.279 194.756c.673 4.344 1.984 8.565 3.886 12.521-11.56-1.504-23.457-1.101-34.88 1.246v-12.287c10.184-1.853 20.677-2.34 30.994-1.48zm142.774-51.945 23.962 12.642c-4.296 15.336-12.518 29.321-23.295 40.997l-10.651-15.603c-2.335-3.421-7.002-4.302-10.422-1.967-3.422 2.335-4.302 7.001-1.967 10.423l11.932 17.481c-4.279 3.393-8.79 6.357-13.519 8.88-5.718-.503-11.517-.64-17.249-.403l-2.113-19.125c-.456-4.117-4.156-7.086-8.278-6.631-4.117.455-7.086 4.161-6.632 8.278l2.093 18.946c-9.575 1.497-18.835 4.029-27.651 7.482-1.85-.352-3.69-.756-5.518-1.211 2.372-6.733 6.163-17.228 9.889-26.429 1.554-3.839-.298-8.212-4.138-9.766-3.841-1.556-8.212.299-9.767 4.137-3.927 9.701-7.837 20.539-10.241 27.376-17.871-7.36-31.374-24.364-21.435-44.006 6.906-14.528 24.095-20.937 39.13-14.59 43.559 18.388 72.5-2.706 85.87-16.911zm-167.42 211.862c.025.882.04 1.765.045 2.649-4.083-.169-8.142-.401-12.176-.696-.248-21.201-6.904-41.543-19.188-58.793 3.951-1.277 7.854-2.771 11.688-4.478 12.378 18.446 18.296 39.316 19.631 61.318zm-39.42-1.053c-1.046-18.857-9.313-37.004-22.67-50.324 4.973-.177 9.952-.695 14.9-1.547 12.493 15.302 19.449 33.929 20.026 53.475-4.119-.469-8.206-1.004-12.256-1.604zm-28.003-5.336c-4.386-22.134-23.543-39.164-46.58-40.524-11.503-.677-22.657 2.502-31.963 9.022-3.701-2.318-7.229-4.699-10.58-7.141 12.119-9.826 27.481-14.834 43.268-13.9 16.364.966 31.479 8.148 42.56 20.224 9.039 9.849 14.578 22.054 16.032 35.047-4.297-.834-8.545-1.743-12.737-2.728zm-17.075-4.515c-16.592-4.898-32.133-11.04-46.266-18.341 4.955-2.083 10.358-3.02 15.877-2.694 13.509.798 25.119 9.243 30.389 21.035zm-92.611-52.179c10.477-9.4 22.919-16.18 36.476-19.861 3.517 3.533 7.255 6.847 11.199 9.896-14.415 2.326-27.935 8.676-39.011 18.438-3.098-2.766-5.987-5.592-8.664-8.473zm-15.838-22.193c10.229-8.669 22.004-15.604 34.519-20.336 2.131 3.543 4.471 6.984 7.013 10.306-12.935 4.479-24.85 11.444-35.157 20.564-2.415-3.454-4.543-6.968-6.375-10.534zm186.672 16.96c4.133-2.602 7.702-5.767 10.666-9.335 5.059-1.556 10.856-1.942 16.1-1.103-6.448 10.027-11.574 20.998-15.116 32.684-3.15-7.74-7.044-15.194-11.65-22.246zm36.381-23.537c-5.42-1.715-11.381-2.518-17.069-2.326 1.089-3.913 1.642-7.974 1.63-12.067 8.303-.016 16.594 1.62 24.267 4.801-3.095 3.048-6.042 6.25-8.828 9.592zm21.179-20.338c-11.983-6.349-25.709-9.485-39.258-9.008-1.402-3.886-3.693-8.253-6.112-11.656 19.562-1.924 39.679 2.674 56.376 13.066-3.798 2.35-7.472 4.886-11.006 7.598zm-55.642-8.832c5.444 9.868 5.139 22.78-1.495 32.084-5.025 5.776-10.83 9.671-17.724 12.924-2.751-6.697-7.207-17.301-11.625-26.771-1.75-3.754-6.215-5.378-9.967-3.627-3.754 1.75-5.378 6.213-3.627 9.967 4.185 8.973 8.505 19.241 11.219 25.837-10.964 3.342-22.551 4.839-34 4.137l1.645-27.653c.246-4.135-2.907-7.686-7.042-7.932-4.14-.244-7.687 2.907-7.932 7.042l-1.568 26.354c-10.563-2.492-20.974-7.036-30.773-14.002l11.036-18.053c2.161-3.534 1.047-8.15-2.487-10.311-3.535-2.162-8.151-1.047-10.311 2.487l-9.868 16.142c-11.338-11.062-20.305-24.64-25.368-39.683l23.329-13.868c14.085 13.476 44.083 33.02 86.687 12.413 14.219-6.879 32.285-1.522 39.871 12.513zm-148.744-222.631c-7.267-.192-7.261-10.83 0-11.019h47.326v11.019zm47.326 197.696c-12.26-6.474-22.847-17.281-28.316-30.095 5.31-11.303 10.63-23.577 12.395-36.058 5.121-2.364 10.443-4.603 15.921-6.697zm-55.709-53.086c1.411 2.407 4.044 3.836 6.83 3.697 2.787-.134 5.269-1.805 6.443-4.336 5.49-11.838 9.783-16.383 11.945-17.847-.838 13.067-6.936 26.256-12.712 37.827-.918 1.839-1.042 3.976-.341 5.908 2.092 5.77 4.931 11.242 8.458 16.309l-17.137 10.187c-1.077-6.698-1.44-13.537-1.059-20.412.142-2.552.728-5.032-.479-7.483-5.456-11.576-11.887-25.535-13.167-38.439 2.289 1.798 6.053 5.781 11.219 14.589zm-14.418 23.989c.807 1.87 1.497 3.414 1.996 4.514-1.293 17.555 1.663 35.328 8.6 51.505-11.955 4.699-23.281 11.181-33.417 19.12-7.318-27.332 1.386-52.355 22.821-75.139zm191.176 178.037c-.565-5.972-.666-11.988-.309-17.976 3.822-64.087 59.331-113.138 123.773-109.325 33.119 1.956 63.717 17.742 84.421 43.443-2.107 3.575-4.515 7.094-7.217 10.546-18.424-24.644-46.91-40.137-77.929-41.969-57.71-3.415-107.467 40.56-110.895 98.015-.341 5.717-.211 11.446.384 17.11-4.054.115-8.143.169-12.228.156zm181.313-53.741c-13.467-20.33-35.467-33.087-60.184-34.547-42.766-2.533-79.617 30.054-82.156 72.624-.275 4.615-.138 9.225.408 13.781-4.018.4-8.066.738-12.14 1.011-.589-5.124-.732-10.317-.423-15.502 2.937-49.202 45.546-86.853 95.037-83.934 27.596 1.63 52.853 15.875 68.557 38.412-2.831 2.776-5.866 5.496-9.099 8.155zm-100.239 40.572c1.16-19.436 18.009-34.295 37.561-33.152 11.11.656 21.038 6.35 27.178 15.274-19.324 9.705-41.189 17.281-64.71 22.519-.112-1.538-.122-3.088-.029-4.641zm77.96-25.088c-8.645-13.445-23.182-22.073-39.515-23.037-27.801-1.65-51.768 19.545-53.418 47.232-.17 2.841-.099 5.677.21 8.482-3.974.701-7.987 1.337-12.037 1.908-.439-3.668-.55-7.381-.328-11.1 2.047-34.319 31.819-60.576 66.299-58.542 20.227 1.195 38.198 11.76 49.025 28.566-3.261 2.218-6.674 4.383-10.236 6.491zm59.614-83.193c0 7.658-1.293 15.224-3.822 22.619-17.378-19.286-39.972-32.93-64.916-39.41 15.657-12.08 28.413-28.626 36.084-46.851 21.407 19.208 32.654 41.048 32.654 63.642zm-51.988-148.02c2.745 5.217 10.571 5.212 13.294-.04 4.691-9.042 8.237-13.225 10.432-15.152-.373 7.533-4.945 23.85-11.191 39.11-1.095 2.561-.297 5.367-.04 7.976.677 6.694.645 13.388-.073 19.983l-17.603-9.287c3.265-5.25 5.821-10.871 7.617-16.752.6-1.963.368-4.087-.64-5.875-8.153-14.467-14.543-30.904-14.683-37.225 2.197 1.295 6.737 5.578 12.887 17.262zm-165.615 26.568c47.801 0 94.236 8.896 132.117 25.182-13.049 10.124-33.245 17.707-61.051 5.969-26.632-11.708-57.599 5.661-62.5 33.825-10.386-.789-20.948-.362-31.234 1.291v-65.607c7.509-.439 15.106-.66 22.668-.66zm-37.667-6.386v.058 81.506c-.004.139-.004.279 0 .419v13.651c-4.277-.904-8.704-1.195-13.143-.828v-203.173h13.143z"/></svg>